<svg width="350" height="350" viewBox="0 0 350 350" fill="none" xmlns="http://www.w3.org/2000/svg">
<g clip-path="url(#clip0_299_1407)">
<path opacity="0.15" fill-rule="evenodd" clip-rule="evenodd" d="M77.371 113.229C72.9032 116.617 70.8642 119.514 71.1014 122.138C71.1936 123.158 71.7803 124.88 72.5332 126.342C73.2813 127.795 75.763 131.951 77.0798 133.956C77.6339 134.8 78.3067 135.889 78.5751 136.376L79.0631 137.262L67.6933 144.734L56.3236 152.206L55.3574 154.358C53.5826 158.311 52.6447 159.721 50.4303 161.768C48.2718 163.763 46.6239 165.031 39.17 170.432C34.5871 173.753 33.7665 174.58 33.5303 176.114C33.2615 177.86 33.9721 179.18 39.0449 186.356C43.0964 192.087 43.7309 192.901 44.8798 193.836C46.0269 194.769 47.089 195.158 48.8179 195.277C52.4648 195.529 54.6526 194.808 60.1111 191.557C61.4417 190.765 71.9932 183.957 83.559 176.429C96.7572 167.839 105.149 162.432 106.096 161.909C110.281 159.597 111.627 159.279 114.17 160.003C115.713 160.442 116.602 160.865 117.063 161.379C117.574 161.949 118.053 163.479 118.246 165.163C118.421 166.677 118.568 170.851 118.576 174.478C118.578 175.643 118.582 177.451 118.584 178.495C118.586 179.54 118.593 181.525 118.6 182.908C118.606 184.29 118.615 186.933 118.618 188.781C118.621 190.629 118.626 192.717 118.628 193.42C118.632 194.778 118.727 197.469 118.816 198.746C119.045 202.054 120.539 204.902 123.056 206.832C126.512 209.482 133.395 210.134 141.229 208.554C144.452 207.903 146.509 207.156 148.674 205.847C150.64 204.659 151.207 204.06 151.467 202.897C151.694 201.884 151.559 201.538 149.753 198.522C148.994 197.253 148.266 195.953 148.136 195.634C147.607 194.337 147.335 192.256 147.252 188.865C147.154 184.904 147.128 184.308 146.928 181.441C146.596 176.681 146.271 173.179 145.61 167.242C145.263 164.132 144.944 161.086 144.9 160.473L144.82 159.36L145.602 158.223C146.032 157.597 147.197 155.961 148.191 154.586L149.998 152.087L150.496 152.173C151.721 152.386 156.197 152.516 158.665 152.411C161.372 152.296 164.732 151.732 167.082 150.997C169.324 150.296 170.594 149.706 172.341 148.552C174.059 147.418 175.055 146.481 176.034 145.081C178.049 142.196 179.415 137.172 179.396 132.716C179.388 130.674 179.085 128.898 178.332 126.465L177.646 124.249L205.247 106.11L232.847 87.9704L233.547 88.3293C234.484 88.8098 236.309 89.1678 237.522 89.109C240.683 88.9561 244.892 87.4206 248.943 84.9424C250.629 83.9112 251.299 83.4225 254.104 81.1779C255.877 79.7594 257.384 78.5344 257.454 78.4561C257.523 78.3776 258.316 77.7248 259.216 77.0054C260.116 76.2859 261.486 75.153 262.26 74.4878C263.034 73.8226 265.359 71.8349 267.428 70.0708C269.496 68.3068 272.101 66.0379 273.217 65.029C274.332 64.0201 276.02 62.5135 276.967 61.681C283.407 56.0181 287.792 51.9196 289.142 50.3016C290.037 49.229 290.267 48.3658 290.076 46.8017C289.905 45.3973 289.611 44.6428 288.82 43.5854C287.975 42.455 286.929 41.7018 284.473 40.457C282.005 39.2063 280.942 38.5888 279.378 37.4984C278.236 36.7018 277.136 35.8011 276.938 35.4998C276.892 35.4304 277.123 35.0999 277.463 34.7467C277.953 34.2375 278.756 33.6655 281.663 31.7552L285.257 29.3931L282.236 24.7967L279.216 20.2003L276.186 22.1915L273.156 24.1828L270.823 23.7778C266.994 23.1132 265.522 22.8822 264.374 22.766C262.564 22.5829 260.067 22.6093 258.31 22.8297L256.648 23.0382L219.528 47.435C194.324 63.9999 182.219 72.0045 181.821 72.3698C181.498 72.6657 180.427 74.0016 179.44 75.3383C176.323 79.5645 174.394 81.8371 173.818 81.9638C173.561 82.0201 171.696 80.9134 169.565 79.4399L168.136 78.452L167.27 78.9394C166.794 79.2075 162.951 81.6616 158.731 84.3931C154.51 87.1245 149.943 90.0508 148.581 90.896L146.106 92.4326L142.949 87.6879L139.793 82.9432L136.677 84.9037C134.963 85.9819 133.202 87.0217 132.763 87.2144C131.694 87.6841 129.651 88.3273 127.719 88.8025C121.772 90.2657 119.808 90.8229 115.465 92.2808C109.207 94.3815 106.911 95.3127 103.005 97.3359C101.575 98.0762 100.623 98.612 95.8509 101.362C91.4579 103.894 79.8649 111.339 77.371 113.229ZM151.645 138.133C152.112 137.972 152.054 137.943 153.494 139.061C154.747 140.034 157.111 141.019 159.064 141.384C160.208 141.598 162.169 141.674 163.066 141.539C163.744 141.437 163.771 141.422 164.017 141.019C164.3 140.556 164.394 139.81 164.23 139.34C164.153 139.119 163.758 138.775 162.85 138.139C161.081 136.898 159.927 135.823 159.149 134.692L158.511 133.764L161.278 131.83C164.542 129.55 167.858 127.41 168.994 126.851C170.199 126.258 170.663 126.4 171.436 127.599C173.143 130.245 173.826 136.895 172.759 140.48C172.224 142.278 171.354 143.449 169.788 144.478C167.464 146.005 164.07 146.753 158.393 146.989C152.245 147.243 151.18 147.052 150.372 145.545C149.933 144.725 149.063 142.313 148.822 141.245C148.638 140.433 148.737 140.085 149.313 139.512C149.737 139.089 150.948 138.374 151.645 138.133Z" fill="#383635"/>
</g>
<defs>
<clipPath id="clip0_299_1407">
<rect width="350" height="350" fill="white"/>
</clipPath>
</defs>
</svg>
