<svg width="18" height="19" viewBox="0 0 18 19" fill="none" xmlns="http://www.w3.org/2000/svg">
<path fill-rule="evenodd" clip-rule="evenodd" d="M8.93939 0.279297C4.01289 0.279297 0 4.29219 0 9.21869C0 14.1452 4.01289 18.1581 8.93939 18.1581C13.8659 18.1581 17.8788 14.1452 17.8788 9.21869C17.8788 4.29219 13.8659 0.279297 8.93939 0.279297ZM8.9388 2.06709C12.8991 2.06709 16.0903 5.25835 16.0903 9.21861C16.0903 13.1789 12.8991 16.3701 8.9388 16.3701C4.97854 16.3701 1.78729 13.1789 1.78729 9.21861C1.78729 5.25835 4.97854 2.06709 8.9388 2.06709ZM8.04486 9.58876V3.85497H9.83274V8.84846L13.1466 12.1623L11.8825 13.4264L8.04486 9.58876Z" fill="black" fill-opacity="0.38"/>
</svg>
