<svg width="14" height="14" viewBox="0 0 14 14" fill="none" xmlns="http://www.w3.org/2000/svg">
<path d="M13.8255 12.18C13.9359 12.2895 13.998 12.4386 13.998 12.5942C13.998 12.7497 13.9359 12.8988 13.8255 13.0083L13.0088 13.825C12.8993 13.9354 12.7502 13.9975 12.5946 13.9975C12.4391 13.9975 12.29 13.9354 12.1805 13.825L7.00048 8.64499L1.82048 13.825C1.71095 13.9354 1.56185 13.9975 1.40631 13.9975C1.25077 13.9975 1.10168 13.9354 0.992145 13.825L0.175479 13.0083C0.0650463 12.8988 0.00292969 12.7497 0.00292969 12.5942C0.00292969 12.4386 0.0650463 12.2895 0.175479 12.18L5.35548 6.99999L0.175479 1.81999C0.0650463 1.71046 0.00292969 1.56136 0.00292969 1.40582C0.00292969 1.25029 0.0650463 1.10119 0.175479 0.991657L0.992145 0.17499C1.10168 0.064558 1.25077 0.00244141 1.40631 0.00244141C1.56185 0.00244141 1.71095 0.064558 1.82048 0.17499L7.00048 5.35499L12.1805 0.17499C12.29 0.064558 12.4391 0.00244141 12.5946 0.00244141C12.7502 0.00244141 12.8993 0.064558 13.0088 0.17499L13.8255 0.991657C13.9359 1.10119 13.998 1.25029 13.998 1.40582C13.998 1.56136 13.9359 1.71046 13.8255 1.81999L8.64548 6.99999L13.8255 12.18Z" fill="white"/>
</svg>
