<svg width="24" height="24" viewBox="0 0 24 24" fill="none" xmlns="http://www.w3.org/2000/svg">
<g clip-path="url(#clip0_418_1754)">
<path d="M18.8047 6.26685C18.7989 6.25625 18.7892 6.24794 18.7775 6.24342C17.4159 5.65777 15.9791 5.24015 14.5029 5.00102C14.4895 4.99869 14.4757 5.00037 14.4633 5.00584C14.451 5.01131 14.4408 5.02029 14.4343 5.03149C14.2386 5.3644 14.061 5.70636 13.9021 6.05605C12.3109 5.8296 10.6924 5.8296 9.10117 6.05605C8.94123 5.70547 8.76077 5.36343 8.56063 5.03149C8.55376 5.02053 8.54354 5.01176 8.53128 5.00633C8.51902 5.00089 8.50531 4.99905 8.49191 5.00102C7.01562 5.23965 5.5787 5.6573 4.21733 6.24345C4.20567 6.24808 4.19584 6.25599 4.18918 6.26608C1.46671 10.0776 0.720923 13.7955 1.08678 17.4673C1.08781 17.4763 1.09076 17.485 1.09545 17.4929C1.10015 17.5008 1.10649 17.5077 1.1141 17.5133C2.69937 18.6137 4.47252 19.4537 6.35787 19.9973C6.37115 20.0011 6.38533 20.0009 6.3985 19.9968C6.41167 19.9928 6.4232 19.9851 6.43155 19.9747C6.83648 19.4581 7.19528 18.9112 7.5043 18.3393C7.50855 18.3315 7.51097 18.3229 7.51142 18.3141C7.51186 18.3053 7.51031 18.2965 7.50687 18.2884C7.50343 18.2802 7.49818 18.2728 7.49147 18.2666C7.48475 18.2605 7.47672 18.2557 7.46791 18.2527C6.90211 18.0497 6.35434 17.8051 5.82976 17.521C5.82023 17.5158 5.81223 17.5084 5.80646 17.4995C5.80069 17.4907 5.79733 17.4807 5.79668 17.4703C5.79602 17.46 5.7981 17.4496 5.80271 17.4402C5.80733 17.4308 5.81435 17.4226 5.82315 17.4163C5.93354 17.339 6.04201 17.2594 6.14848 17.1774C6.15781 17.1702 6.16911 17.1655 6.1811 17.164C6.19309 17.1625 6.20529 17.1642 6.21633 17.1688C9.6531 18.6392 13.3739 18.6392 16.7699 17.1688C16.781 17.1639 16.7933 17.162 16.8055 17.1634C16.8177 17.1647 16.8292 17.1693 16.8387 17.1766C16.9452 17.259 17.054 17.339 17.1648 17.4163C17.1736 17.4225 17.1807 17.4307 17.1854 17.4401C17.1901 17.4495 17.1923 17.4598 17.1917 17.4701C17.1911 17.4805 17.1878 17.4905 17.1821 17.4994C17.1764 17.5083 17.1685 17.5157 17.159 17.521C16.6356 17.8075 16.0874 18.052 15.5201 18.2519C15.5113 18.2551 15.5033 18.2599 15.4966 18.2662C15.4899 18.2724 15.4847 18.2799 15.4814 18.2881C15.478 18.2964 15.4765 18.3052 15.477 18.314C15.4776 18.3229 15.4801 18.3315 15.4844 18.3393C15.7986 18.908 16.1568 19.4543 16.5563 19.9738C16.5644 19.9844 16.5759 19.9924 16.5891 19.9966C16.6023 20.0008 16.6166 20.001 16.63 19.9972C18.5187 19.4554 20.295 18.6154 21.8822 17.5133C21.8899 17.508 21.8964 17.5012 21.9011 17.4934C21.9058 17.4856 21.9087 17.477 21.9095 17.468C22.3475 13.2231 21.1762 9.53569 18.8047 6.26685V6.26685ZM8.01756 15.2315C6.98284 15.2315 6.13026 14.3413 6.13026 13.2481C6.13026 12.1548 6.9663 11.2645 8.01756 11.2645C9.07702 11.2645 9.92135 12.1625 9.90481 13.248C9.90481 14.3413 9.06874 15.2315 8.01756 15.2315V15.2315ZM14.9954 15.2315C13.9608 15.2315 13.1082 14.3413 13.1082 13.2481C13.1082 12.1548 13.9442 11.2645 14.9954 11.2645C16.055 11.2645 16.8993 12.1625 16.8827 13.248C16.8827 14.3413 16.055 15.2315 14.9954 15.2315Z" fill="#060403"/>
</g>
<defs>
<clipPath id="clip0_418_1754">
<rect width="21" height="15" fill="white" transform="translate(1 5)"/>
</clipPath>
</defs>
</svg>
