<svg width="16" height="16" viewBox="0 0 16 16" fill="none" xmlns="http://www.w3.org/2000/svg">
<path opacity="0.85" fill-rule="evenodd" clip-rule="evenodd" d="M16 7.95036C16 3.56743 12.4324 0 8.04937 0V1.51404C11.5974 1.51404 14.4859 4.40243 14.4859 7.95036H16ZM0.436677 6.78705C0.154002 6.02353 -0.0506927 5.24376 0.0110407 4.41526C0.0500303 3.90517 0.241729 3.4698 0.615379 3.1124C0.85536 2.88587 1.0874 2.65253 1.31954 2.41908L1.31955 2.41908C1.48028 2.25745 1.64106 2.09577 1.80456 1.93626C2.32442 1.42291 2.97749 1.42616 3.49736 1.93626C3.81902 2.25141 4.13743 2.57307 4.45585 2.89472C4.55857 2.99743 4.66164 3.10015 4.76484 3.20298L4.765 3.20314C4.97186 3.40927 5.1792 3.61588 5.3851 3.82394C5.9277 4.37303 5.93095 5.01308 5.38835 5.55892C5.29087 5.65639 5.19359 5.75407 5.09632 5.85175C4.80451 6.14477 4.5127 6.43778 4.21541 6.72532C4.11144 6.82604 4.10169 6.91051 4.15693 7.03722C4.41686 7.66104 4.79376 8.21662 5.21614 8.73646C6.06742 9.78265 7.02916 10.7119 8.1761 11.4299C8.32618 11.5227 8.48466 11.6011 8.64352 11.6797L8.64353 11.6797C8.74604 11.7304 8.84872 11.7812 8.94939 11.836C9.08261 11.9075 9.17033 11.8848 9.27755 11.7743C9.66418 11.3747 10.0605 10.9816 10.4569 10.5885L10.457 10.5884C10.9768 10.0751 11.6267 10.0718 12.1465 10.5884C12.7834 11.2187 13.4169 11.8523 14.0473 12.4891C14.5769 13.0219 14.5736 13.675 14.0408 14.2111C13.9205 14.3325 13.798 14.4517 13.6756 14.5708L13.6756 14.5708C13.4312 14.8087 13.1873 15.0462 12.9621 15.2995C12.4682 15.8518 11.8444 16.0338 11.1361 15.9948C10.1028 15.9395 9.15084 15.5951 8.23134 15.15C6.19088 14.1591 4.44935 12.7847 2.99049 11.0498C1.91178 9.76315 1.02152 8.36607 0.436677 6.78705ZM13.1602 7.95056H11.6462C11.6462 6.98885 11.2725 6.08562 10.5934 5.40657C9.91437 4.72753 9.01111 4.35389 8.04937 4.35389V2.83984C10.8664 2.83984 13.1602 5.13365 13.1602 7.95056Z" fill="white"/>
</svg>
