<svg width="20" height="20" viewBox="0 0 20 20" fill="none" xmlns="http://www.w3.org/2000/svg">
<g opacity="0.6">
<path opacity="0.85" fill-rule="evenodd" clip-rule="evenodd" d="M20.0002 9.93805C20.0002 4.45933 15.5407 0 10.0618 0V1.89257C14.4969 1.89257 18.1075 5.50309 18.1075 9.93805H20.0002ZM0.545851 8.48399C0.192505 7.52958 -0.0633665 6.55486 0.0138011 5.51923C0.0625385 4.8816 0.302164 4.33738 0.769231 3.89064C1.06921 3.60746 1.35927 3.31578 1.64945 3.02397L1.64946 3.02396C1.85038 2.82192 2.05135 2.61982 2.25572 2.42044C2.90555 1.77875 3.7219 1.78281 4.37174 2.42044C4.77382 2.81439 5.17184 3.21646 5.56986 3.61853C5.69831 3.74698 5.82722 3.87542 5.95627 4.00402L5.95631 4.00407C6.21489 4.26173 6.47407 4.51999 6.73144 4.78007C7.4097 5.46643 7.41376 6.26651 6.7355 6.94881C6.61365 7.07066 6.49205 7.19276 6.37045 7.31486C6.00569 7.68114 5.64093 8.04741 5.26932 8.40682C5.13935 8.53273 5.12717 8.63832 5.19621 8.79671C5.52113 9.57648 5.99226 10.271 6.52024 10.9208C7.58434 12.2285 8.78653 13.3901 10.2202 14.2876C10.4078 14.4036 10.6059 14.5016 10.8045 14.5999L10.8045 14.5999C10.9327 14.6633 11.061 14.7268 11.1868 14.7953C11.3534 14.8846 11.463 14.8562 11.5971 14.7181C12.0803 14.2186 12.5758 13.7272 13.0713 13.2358L13.0714 13.2357C13.7212 12.594 14.5335 12.59 15.1833 13.2357C15.9794 14.0236 16.7713 14.8156 17.5593 15.6116C18.2213 16.2777 18.2172 17.094 17.5511 17.7641C17.4008 17.9158 17.2477 18.0649 17.0947 18.2137L17.0947 18.2138C16.7892 18.5112 16.4842 18.808 16.2027 19.1246C15.5854 19.8151 14.8056 20.0425 13.9202 19.9938C12.6287 19.9247 11.4387 19.4942 10.2893 18.9378C7.73868 17.6991 5.56174 15.9812 3.73815 13.8124C2.38975 12.2042 1.27691 10.4578 0.545851 8.48399ZM16.4505 9.93826H14.5578C14.5578 8.73611 14.0908 7.60706 13.2419 6.75825C12.3931 5.90943 11.264 5.44238 10.0618 5.44238V3.5498C13.5831 3.5498 16.4505 6.4171 16.4505 9.93826Z" fill="black"/>
</g>
</svg>
