<svg width="16" height="12" viewBox="0 0 16 12" fill="none" xmlns="http://www.w3.org/2000/svg">
<path fill-rule="evenodd" clip-rule="evenodd" d="M14 0H2C1.17157 0 0.5 0.671573 0.5 1.5V10.5C0.5 11.3284 1.17157 12 2 12H14C14.8284 12 15.5 11.3284 15.5 10.5V1.5C15.5 0.671573 14.8284 0 14 0ZM14 1.49997V3.67497L8.48747 7.53747C8.19431 7.74093 7.80562 7.74093 7.51247 7.53747L1.99997 3.67497V1.49997H14ZM1.99997 5.25003V10.5H14V5.25003L9.23746 8.58003C8.49425 9.09955 7.50568 9.09955 6.76247 8.58003L1.99997 5.25003Z" fill="white"/>
</svg>
