<svg width="140" height="116" viewBox="0 0 140 116" fill="none" xmlns="http://www.w3.org/2000/svg">
<path fill-rule="evenodd" clip-rule="evenodd" d="M134.624 101.567C132.683 100.685 128.328 98.7032 124.947 97.162C121.537 95.6079 118.702 94.3427 118.581 94.3215C118.308 94.2734 118.06 94.3841 117.89 94.6302C117.632 95.0041 117.804 95.5152 118.374 96.0651C118.98 96.6495 119.395 96.8426 128.351 100.703C134.276 103.256 136.596 104.277 136.641 104.351C136.816 104.638 136.631 104.698 132.856 105.569C130.846 106.033 127.671 106.766 125.799 107.198C123.928 107.63 122.34 108.018 122.272 108.061C122.064 108.191 121.975 108.392 122.068 108.521C122.236 108.756 122.449 108.832 122.838 108.796C123.045 108.777 126.268 108.084 130 107.256C138.909 105.28 138.801 105.305 138.997 105.149C139.289 104.918 139.374 104.713 139.311 104.396C139.242 104.048 138.868 103.596 138.433 103.336C138.279 103.244 136.565 102.448 134.624 101.567Z" fill="white"/>
<path d="M125.811 103.189C88.5159 97.8981 -14.4003 71.5195 2.95461 1" stroke="white" stroke-width="1.5"/>
</svg>
