<svg width="168" height="173" viewBox="0 0 168 173" fill="none" xmlns="http://www.w3.org/2000/svg">
<path fill-rule="evenodd" clip-rule="evenodd" d="M161.529 165.293C159.119 165.75 153.709 166.782 149.508 167.585C145.271 168.396 141.755 169.034 141.613 169.02C141.291 168.986 141.034 168.756 140.898 168.379C140.691 167.806 141.005 167.208 141.78 166.698C142.604 166.156 143.121 166.053 154.196 164.211C161.525 162.992 164.398 162.487 164.466 162.408C164.732 162.1 164.535 161.957 160.444 159.511C158.266 158.209 154.824 156.151 152.796 154.938C150.767 153.726 149.052 152.669 148.984 152.59C148.778 152.349 148.723 152.059 148.859 151.925C149.104 151.681 149.364 151.658 149.798 151.84C150.029 151.937 153.534 153.96 157.587 156.335C167.26 162.004 167.143 161.934 167.33 162.204C167.608 162.604 167.658 162.899 167.513 163.285C167.354 163.711 166.825 164.162 166.27 164.345C166.073 164.41 163.94 164.837 161.529 165.293Z" fill="white"/>
<path d="M151 159.5C43.9619 140.102 -4.33452 34.1642 1.98062 1" stroke="white"/>
</svg>
