<svg width="157" height="39" viewBox="0 0 157 39" fill="none" xmlns="http://www.w3.org/2000/svg">
<g clip-path="url(#clip0_263_403)">
<path d="M7.37028 0H157L149.988 39H0L7.37028 0Z" fill="white"/>
<path d="M24.7343 21.075H25.1243L27.1793 18.69L26.2343 24H29.5943L31.4993 13.2H28.3643L25.7243 16.335L24.1793 13.2H21.0593L19.1543 24H22.5143L23.4743 18.555L24.7343 21.075ZM36.6372 24L37.2672 20.385L41.9022 13.2H38.1822L36.1272 16.635L35.2872 13.2H31.8072L33.6972 19.92L32.9772 24H36.6372ZM54.4107 19.5L54.4707 19.17L50.7807 19.185L50.7357 19.44C50.6357 20.02 50.5007 20.43 50.3307 20.67C50.1707 20.9 49.9057 21.015 49.5357 21.015C49.2557 21.015 49.0557 20.945 48.9357 20.805C48.8157 20.655 48.7607 20.4 48.7707 20.04C48.7807 19.87 48.8007 19.66 48.8307 19.41C48.8607 19.16 48.9007 18.88 48.9507 18.57C49.1107 17.67 49.2807 17.035 49.4607 16.665C49.6507 16.285 49.9457 16.095 50.3457 16.095C50.6657 16.095 50.8907 16.205 51.0207 16.425C51.1607 16.635 51.1807 17.02 51.0807 17.58L50.9907 18.09H54.6357L54.6957 17.745C54.9657 16.205 54.7357 15.025 54.0057 14.205C53.2857 13.385 52.1557 12.975 50.6157 12.975C49.6457 12.975 48.8007 13.155 48.0807 13.515C47.3707 13.865 46.7807 14.435 46.3107 15.225C46.0707 15.615 45.8657 16.075 45.6957 16.605C45.5257 17.125 45.3857 17.71 45.2757 18.36L45.2607 18.45C45.0507 19.67 45.0457 20.71 45.2457 21.57C45.4557 22.43 45.9007 23.09 46.5807 23.55C46.9207 23.77 47.3257 23.935 47.7957 24.045C48.2657 24.165 48.8057 24.225 49.4157 24.225C50.4057 24.225 51.2307 24.08 51.8907 23.79C52.5507 23.5 53.0857 23.01 53.4957 22.32C53.6957 21.97 53.8707 21.56 54.0207 21.09C54.1807 20.62 54.3107 20.09 54.4107 19.5ZM59.438 24.225C60.528 24.225 61.423 24.03 62.123 23.64C62.823 23.24 63.378 22.64 63.788 21.84C63.998 21.44 64.178 20.99 64.328 20.49C64.488 19.98 64.623 19.42 64.733 18.81L64.748 18.735C64.978 17.415 64.938 16.33 64.628 15.48C64.328 14.63 63.823 14 63.113 13.59C62.763 13.38 62.378 13.225 61.958 13.125C61.538 13.025 61.083 12.975 60.593 12.975C59.673 12.975 58.848 13.145 58.118 13.485C57.388 13.825 56.778 14.385 56.288 15.165C56.038 15.555 55.823 16.015 55.643 16.545C55.463 17.065 55.318 17.655 55.208 18.315L55.193 18.39C54.983 19.61 54.983 20.655 55.193 21.525C55.413 22.395 55.868 23.065 56.558 23.535C56.898 23.765 57.308 23.935 57.788 24.045C58.278 24.165 58.828 24.225 59.438 24.225ZM59.513 21.045C59.113 21.045 58.868 20.865 58.778 20.505C58.688 20.145 58.723 19.495 58.883 18.555C59.043 17.655 59.233 17.025 59.453 16.665C59.683 16.305 59.973 16.125 60.323 16.125C60.733 16.125 60.993 16.31 61.103 16.68C61.213 17.04 61.178 17.71 60.998 18.69C60.878 19.34 60.748 19.835 60.608 20.175C60.468 20.515 60.308 20.745 60.128 20.865C60.038 20.925 59.943 20.97 59.843 21C59.743 21.03 59.633 21.045 59.513 21.045ZM72.1966 24L72.8116 20.49H68.9416L70.2316 13.2H66.5866L64.6816 24H72.1966ZM80.5902 24L81.2052 20.49H77.3352L78.6252 13.2H74.9802L73.0752 24H80.5902ZM89.8987 20.88H85.4587L85.6237 20.025H89.8387L90.3637 17.04H86.1487L86.2987 16.17H90.7387L91.2637 13.2H83.3737L81.4687 24H89.3437L89.8987 20.88ZM100.143 19.5L100.203 19.17L96.5131 19.185L96.4681 19.44C96.3681 20.02 96.2331 20.43 96.0631 20.67C95.9031 20.9 95.6381 21.015 95.2681 21.015C94.9881 21.015 94.7881 20.945 94.6681 20.805C94.5481 20.655 94.4931 20.4 94.5031 20.04C94.5131 19.87 94.5331 19.66 94.5631 19.41C94.5931 19.16 94.6331 18.88 94.6831 18.57C94.8431 17.67 95.0131 17.035 95.1931 16.665C95.3831 16.285 95.6781 16.095 96.0781 16.095C96.3981 16.095 96.6231 16.205 96.7531 16.425C96.8931 16.635 96.9131 17.02 96.8131 17.58L96.7231 18.09H100.368L100.428 17.745C100.698 16.205 100.468 15.025 99.7381 14.205C99.0181 13.385 97.8881 12.975 96.3481 12.975C95.3781 12.975 94.5331 13.155 93.8131 13.515C93.1031 13.865 92.5131 14.435 92.0431 15.225C91.8031 15.615 91.5981 16.075 91.4281 16.605C91.2581 17.125 91.1181 17.71 91.0081 18.36L90.9931 18.45C90.7831 19.67 90.7781 20.71 90.9781 21.57C91.1881 22.43 91.6331 23.09 92.3131 23.55C92.6531 23.77 93.0581 23.935 93.5281 24.045C93.9981 24.165 94.5381 24.225 95.1481 24.225C96.1381 24.225 96.9631 24.08 97.6231 23.79C98.2831 23.5 98.8181 23.01 99.2281 22.32C99.4281 21.97 99.6031 21.56 99.7531 21.09C99.9131 20.62 100.043 20.09 100.143 19.5ZM109.64 16.38L110.195 13.2H101.795L101.24 16.38H103.685L102.335 24H105.815L107.165 16.38H109.64ZM115.754 24L116.324 20.745H114.689L115.439 16.455H117.074L117.644 13.2H110.894L110.324 16.455H111.959L111.209 20.745H109.574L109.004 24H115.754ZM121.723 24.225C122.813 24.225 123.708 24.03 124.408 23.64C125.108 23.24 125.663 22.64 126.073 21.84C126.283 21.44 126.463 20.99 126.613 20.49C126.773 19.98 126.908 19.42 127.018 18.81L127.033 18.735C127.263 17.415 127.223 16.33 126.913 15.48C126.613 14.63 126.108 14 125.398 13.59C125.048 13.38 124.663 13.225 124.243 13.125C123.823 13.025 123.368 12.975 122.878 12.975C121.958 12.975 121.133 13.145 120.403 13.485C119.673 13.825 119.063 14.385 118.573 15.165C118.323 15.555 118.108 16.015 117.928 16.545C117.748 17.065 117.603 17.655 117.493 18.315L117.478 18.39C117.268 19.61 117.268 20.655 117.478 21.525C117.698 22.395 118.153 23.065 118.843 23.535C119.183 23.765 119.593 23.935 120.073 24.045C120.563 24.165 121.113 24.225 121.723 24.225ZM121.798 21.045C121.398 21.045 121.153 20.865 121.063 20.505C120.973 20.145 121.008 19.495 121.168 18.555C121.328 17.655 121.518 17.025 121.738 16.665C121.968 16.305 122.258 16.125 122.608 16.125C123.018 16.125 123.278 16.31 123.388 16.68C123.498 17.04 123.463 17.71 123.283 18.69C123.163 19.34 123.033 19.835 122.893 20.175C122.753 20.515 122.593 20.745 122.413 20.865C122.323 20.925 122.228 20.97 122.128 21C122.028 21.03 121.918 21.045 121.798 21.045ZM133.117 24H136.312L138.217 13.2H134.977L134.062 18.435L132.157 13.2H128.872L126.967 24H130.222L131.137 18.825L133.117 24Z" fill="#060403"/>
</g>
<defs>
<clipPath id="clip0_263_403">
<rect width="157" height="39" fill="white"/>
</clipPath>
</defs>
</svg>
