<svg width="45" height="19" viewBox="0 0 45 19" fill="none" xmlns="http://www.w3.org/2000/svg">
<path d="M2 9.5L1.36805 10.275L0.417595 9.5L1.36805 8.72499L2 9.5ZM13.0562 17.225C13.4842 17.574 13.5483 18.2039 13.1993 18.6319C12.8502 19.06 12.2203 19.124 11.7923 18.775L13.0562 17.225ZM11.7923 0.22499C12.2203 -0.124026 12.8502 -0.059975 13.1993 0.368051C13.5483 0.796078 13.4842 1.42599 13.0562 1.77501L11.7923 0.22499ZM45 10.5H2V8.5H45V10.5ZM11.7923 18.775L1.36805 10.275L2.63195 8.72499L13.0562 17.225L11.7923 18.775ZM1.36805 8.72499L11.7923 0.22499L13.0562 1.77501L2.63195 10.275L1.36805 8.72499Z" fill="#060403"/>
</svg>
