<svg width="34" height="16" viewBox="0 0 34 16" fill="none" xmlns="http://www.w3.org/2000/svg">
<path d="M0 8L-0.647324 8.76222L-1.54482 8L-0.647324 7.23778L0 8ZM8.88975 14.2378C9.31071 14.5953 9.36215 15.2264 9.00464 15.6473C8.64713 16.0683 8.01606 16.1197 7.5951 15.7622L8.88975 14.2378ZM7.5951 0.237784C8.01606 -0.119722 8.64713 -0.0682832 9.00464 0.352677C9.36215 0.773637 9.31071 1.40471 8.88975 1.76222L7.5951 0.237784ZM34 9H0V7H34V9ZM7.5951 15.7622L-0.647324 8.76222L0.647324 7.23778L8.88975 14.2378L7.5951 15.7622ZM-0.647324 7.23778L7.5951 0.237784L8.88975 1.76222L0.647324 8.76222L-0.647324 7.23778Z" fill="#625F62"/>
</svg>
