<svg width="41" height="26" viewBox="0 0 41 26" fill="none" xmlns="http://www.w3.org/2000/svg">
<path fill-rule="evenodd" clip-rule="evenodd" d="M12.9979 0C9.92004 0 7.42494 2.49441 7.42494 5.57143C7.42494 8.64844 9.92004 11.1429 12.9979 11.1429C16.0758 11.1429 18.5709 8.64844 18.5709 5.57143C18.5709 2.49441 16.0758 0 12.9979 0ZM33.4321 5.57143C33.4321 8.64844 30.937 11.1429 27.8591 11.1429C24.7813 11.1429 22.2862 8.64844 22.2862 5.57143C22.2862 2.49441 24.7813 0 27.8591 0C30.937 0 33.4321 2.49441 33.4321 5.57143ZM40.6584 23.3071L37.9834 17.94C37.0412 16.0533 35.1142 14.86 33.0049 14.8571H25.5743C25.9142 15.2993 26.2127 15.7717 26.4659 16.2686L29.1595 21.6543C29.8261 23.0102 29.9132 24.5786 29.401 26H39.0051C39.6489 25.9981 40.2459 25.6629 40.5827 25.1144C40.9195 24.5658 40.9481 23.882 40.6584 23.3071ZM18.1251 14.8572C20.2411 14.853 22.177 16.0473 23.1222 17.94L25.7972 23.3072C26.0869 23.882 26.0583 24.5658 25.7215 25.1144C25.3847 25.663 24.7877 25.9981 24.1439 26H1.85203C1.20818 25.9981 0.611254 25.663 0.274446 25.1144C-0.0623625 24.5658 -0.0910149 23.882 0.198722 23.3072L2.87374 17.94C3.81891 16.0473 5.75478 14.853 7.87083 14.8572H18.1251Z" fill="#5BB7FF"/>
</svg>
