<svg width="38" height="38" viewBox="0 0 38 38" fill="none" xmlns="http://www.w3.org/2000/svg">
<path fill-rule="evenodd" clip-rule="evenodd" d="M1.05556 12.6667H3.16667C3.74963 12.6667 4.22222 12.1941 4.22222 11.6111V4.22222H11.6111C12.1941 4.22222 12.6667 3.74963 12.6667 3.16667V1.05556C12.6667 0.472588 12.1941 0 11.6111 0H4.22222C1.89035 0 0 1.89035 0 4.22222V11.6111C0 12.1941 0.472588 12.6667 1.05556 12.6667ZM4.22222 33.7778H11.6111C12.1941 33.7778 12.6667 34.2504 12.6667 34.8333V36.9444C12.6667 37.5274 12.1941 38 11.6111 38H4.22222C1.89035 38 0 36.1096 0 33.7778V26.3889C0 25.8059 0.472588 25.3333 1.05556 25.3333H3.16667C3.74963 25.3333 4.22222 25.8059 4.22222 26.3889V33.7778ZM38 33.7778V26.3889C38 25.8059 37.5274 25.3333 36.9444 25.3333H34.8333C34.2504 25.3333 33.7778 25.8059 33.7778 26.3889V33.7778H26.3889C25.8059 33.7778 25.3333 34.2504 25.3333 34.8333V36.9444C25.3333 37.5274 25.8059 38 26.3889 38H33.7778C36.1096 38 38 36.1096 38 33.7778ZM26.3889 0H33.7778C36.1096 0 38 1.89035 38 4.22222V11.6111C38 12.1941 37.5274 12.6667 36.9444 12.6667H34.8333C34.2504 12.6667 33.7778 12.1941 33.7778 11.6111V4.22222H26.3889C25.8059 4.22222 25.3333 3.74963 25.3333 3.16667V1.05556C25.3333 0.472588 25.8059 0 26.3889 0ZM29.0489 22.3778V15.6222C29.0473 14.1153 28.2428 12.7235 26.9378 11.97L21.8078 9.01444C21.1663 8.64235 20.4382 8.44576 19.6966 8.44444H18.3033C17.5618 8.44576 16.8336 8.64235 16.1922 9.01444L11.0622 11.97C9.75718 12.7235 8.95264 14.1153 8.95109 15.6222V22.3778C8.95264 23.8847 9.75718 25.2765 11.0622 26.03L16.1922 28.9856C16.8336 29.3576 17.5618 29.5542 18.3033 29.5556H19.6966C20.4382 29.5542 21.1663 29.3576 21.8078 28.9856L26.9378 26.03C28.2428 25.2765 29.0473 23.8847 29.0489 22.3778ZM19 25.3333H19.6966L24.8266 22.3778V15.6222L19.6966 12.6667H18.3033L13.1733 15.6222L17.9444 18.3878C18.6002 18.7664 19.003 19.4672 19 20.2244V25.3333Z" fill="#5BB7FF"/>
</svg>
