<svg width="38" height="38" viewBox="0 0 38 38" fill="none" xmlns="http://www.w3.org/2000/svg">
<path fill-rule="evenodd" clip-rule="evenodd" d="M28.7321 1.85777L36.1421 9.26774C37.3199 10.444 37.9872 12.0366 37.9998 13.7011V24.2566C38.0096 25.9297 37.3569 27.5386 36.1843 28.7321L28.7743 36.1421C27.5877 37.3301 25.9779 37.9984 24.2988 37.9998H13.7433C12.0702 38.0096 10.4612 37.3569 9.26774 36.1843L1.85777 28.7743C0.669705 27.5877 0.00147821 25.9779 0 24.2988V13.7433C0.00147821 12.0641 0.669705 10.4543 1.85777 9.26774L9.22552 1.85777C10.4121 0.669705 12.0219 0.00147821 13.7011 0H24.2566C25.9357 0.00147821 27.5455 0.669705 28.7321 1.85777ZM33.1655 25.7344C33.5555 25.3412 33.7754 24.8104 33.7777 24.2566L33.8199 13.7433C33.8176 13.1895 33.5977 12.6588 33.2077 12.2656L25.7766 4.83448C25.3834 4.44446 24.8527 4.22459 24.2988 4.22226H13.7433C13.1895 4.22459 12.6588 4.44446 12.2656 4.83448L4.83448 12.2233C4.44446 12.6165 4.22459 13.1473 4.22226 13.7011V24.2566C4.22459 24.8104 4.44446 25.3412 4.83448 25.7344L12.2233 33.1655C12.6165 33.5555 13.1473 33.7754 13.7011 33.7777H24.2566C24.8104 33.7754 25.3412 33.5555 25.7344 33.1655L33.1655 25.7344ZM20.0555 23.2222H17.9444C17.3615 23.2222 16.8889 23.6948 16.8889 24.2777V26.3888C16.8889 26.9718 17.3615 27.4444 17.9444 27.4444H20.0555C20.6385 27.4444 21.1111 26.9718 21.1111 26.3888V24.2777C21.1111 23.6948 20.6385 23.2222 20.0555 23.2222ZM17.5645 10.5556H20.4356C20.7389 10.5534 21.0285 10.6818 21.2306 10.9081C21.4326 11.1344 21.5275 11.4366 21.4911 11.7378L20.6467 18.5356C20.6145 18.8021 20.3873 19.0019 20.1189 19H17.8811C17.6127 19.0019 17.3856 18.8021 17.3534 18.5356L16.5089 11.7378C16.4725 11.4366 16.5674 11.1344 16.7695 10.9081C16.9715 10.6818 17.2611 10.5534 17.5645 10.5556Z" fill="#5BB7FF"/>
</svg>
