<svg width="38" height="35" viewBox="0 0 38 35" fill="none" xmlns="http://www.w3.org/2000/svg">
<path fill-rule="evenodd" clip-rule="evenodd" d="M34.0044 14.2861C33.6315 10.7377 30.8275 7.9337 27.2791 7.56077C26.8192 7.5139 26.4644 7.13489 26.4479 6.67289V4.7082C26.4478 4.25927 26.7637 3.87231 27.2036 3.78252C28.717 3.47576 29.8914 2.27889 30.1695 0.759923C30.2593 0.320072 30.6462 0.00418105 31.0952 0.00427268H32.9843C33.2853 -0.0247293 33.5816 0.0951784 33.7777 0.325424C33.9622 0.530886 34.0453 0.807986 34.0044 1.08107C33.7632 2.63462 33.0434 4.07424 31.9453 5.19937C35.2365 7.01172 37.4157 10.3372 37.7638 14.0783C37.7783 14.3461 37.6905 14.6094 37.5182 14.815C37.3353 15.0057 37.0834 15.1146 36.8192 15.1173H34.9301C34.4536 15.1198 34.053 14.7601 34.0044 14.2861ZM25.8997 17.0064L31.5671 22.6738C31.9357 22.5116 32.1572 22.1297 32.1149 21.7292V17.951C32.1149 17.4293 31.692 17.0064 31.1704 17.0064H25.8997ZM37.7825 17.951V21.7292C37.7825 22.2509 37.3596 22.6738 36.838 22.6738H34.9488C34.4272 22.6738 34.0043 22.2509 34.0043 21.7292V17.951C34.0043 17.4293 34.4272 17.0064 34.9488 17.0064H36.838C37.3596 17.0064 37.7825 17.4293 37.7825 17.951ZM29.1681 15.1172C29.4245 15.1318 29.6761 15.0434 29.867 14.8716C30.0577 14.6888 30.1666 14.4368 30.1693 14.1727V12.2835C30.1709 11.79 29.7922 11.3784 29.3003 11.339C23.7233 10.8972 19.3027 6.45255 18.8912 0.873209C18.8517 0.38126 18.4402 0.0026293 17.9466 0.00421093H16.0575C15.7934 0.00688248 15.5414 0.115833 15.3585 0.306471C15.1868 0.497418 15.0984 0.749035 15.113 1.00545C15.6007 8.58797 21.6422 14.6295 29.2247 15.1172H29.1681ZM3.83492 0.00136558C4.0854 0.00136558 4.32471 0.104968 4.49612 0.287603L35.61 31.4015C35.7927 31.5729 35.8963 31.8122 35.8963 32.0627C35.8963 32.3132 35.7927 32.5525 35.61 32.7239L34.6088 33.7251C34.4374 33.9078 34.1981 34.0114 33.9476 34.0114C33.6971 34.0114 33.4578 33.9078 33.2864 33.7251L22.2161 22.6737H0.944563C0.422895 22.6737 0 22.2508 0 21.7292V17.9509C0 17.4293 0.422895 17.0064 0.944563 17.0064H16.5487L2.17249 2.61123C1.98986 2.43982 1.88626 2.20051 1.88626 1.95003C1.88626 1.69956 1.98986 1.46025 2.17249 1.28884L3.17373 0.287603C3.34514 0.104968 3.58445 0.00136558 3.83492 0.00136558Z" fill="#5BB7FF"/>
</svg>
