<svg width="18" height="18" viewBox="0 0 18 18" fill="none" xmlns="http://www.w3.org/2000/svg">
<path d="M9 18C13.9706 18 18 13.9706 18 9C18 4.02944 13.9706 0 9 0C4.02944 0 0 4.02944 0 9C0 13.9706 4.02944 18 9 18Z" fill="#F0F0F0"/>
<path d="M8.60938 9.00018H18.0007C18.0007 8.18786 17.8924 7.40093 17.6906 6.65234H8.60938V9.00018Z" fill="#D80027"/>
<path d="M8.60938 4.30463H16.6797C16.1288 3.40561 15.4243 2.61097 14.603 1.95679H8.60938V4.30463Z" fill="#D80027"/>
<path d="M9.0008 18.0005C11.1189 18.0005 13.0658 17.2684 14.6032 16.0439H3.39844C4.93582 17.2684 6.88267 18.0005 9.0008 18.0005Z" fill="#D80027"/>
<path d="M1.32146 13.6957H16.6795C17.1218 12.974 17.4649 12.1851 17.6905 11.3479H0.310547C0.536145 12.1851 0.879164 12.974 1.32146 13.6957Z" fill="#D80027"/>
<path fill-rule="evenodd" clip-rule="evenodd" d="M4.98913 1.40548H4.16897C5.56471 0.515742 7.22208 0 9 0V9H0C0 8.61993 0.0238359 8.24544 0.0695742 7.87778L0.526535 7.54576L1.28939 8.1L0.99798 7.2032L1.76087 6.64896H0.81791L0.56243 5.86259C0.650848 5.62475 0.749215 5.39177 0.856758 5.16393L1.28939 5.47826L1.0575 4.76455C1.12704 4.63444 1.1996 4.50622 1.27526 4.38001L1.76087 4.02722H1.49808C1.98323 3.29681 2.57196 2.64129 3.24366 2.08178L2.99194 2.85652L3.75479 2.30228L4.51765 2.85652L4.22624 1.95971L4.98913 1.40548ZM3.75481 7.54549L4.51766 8.09973L4.22625 7.20293L4.98914 6.64869H4.04618L3.75481 5.75189L3.46343 6.64869H2.52047L3.28336 7.20293L2.99195 8.09973L3.75481 7.54549ZM4.22625 4.58159L4.51766 5.47839L3.75481 4.92416L2.99195 5.47839L3.28336 4.58159L2.52047 4.02736H3.46343L3.75481 3.13055L4.04618 4.02736H4.98914L4.22625 4.58159ZM6.98307 7.54549L7.74592 8.09973L7.45451 7.20293L8.21741 6.64869H7.27444L6.98307 5.75189L6.69169 6.64869H5.74873L6.51162 7.20293L6.22021 8.09973L6.98307 7.54549ZM7.45451 4.58159L7.74592 5.47839L6.98307 4.92416L6.22021 5.47839L6.51162 4.58159L5.74873 4.02736H6.69169L6.98307 3.13055L7.27444 4.02736H8.21741L7.45451 4.58159ZM7.74592 2.85651L7.45451 1.95971L8.21741 1.40547H7.27444L6.98307 0.508667L6.69169 1.40547H5.74873L6.51162 1.95971L6.22021 2.85651L6.98307 2.30227L7.74592 2.85651Z" fill="#0052B4"/>
</svg>
