<svg width="14" height="14" viewBox="0 0 14 14" fill="none" xmlns="http://www.w3.org/2000/svg">
<g clip-path="url(#clip0_238_1602)">
<path d="M0 1.62724C0 1.15585 0.157662 0.76696 0.472973 0.460572C0.788284 0.15417 1.1982 0.000976562 1.7027 0.000976562C2.1982 0.000976562 2.59909 0.151809 2.90541 0.453501C3.22072 0.764612 3.37838 1.16999 3.37838 1.66966C3.37838 2.12219 3.22523 2.49928 2.91892 2.80097C2.60361 3.11208 2.18919 3.26764 1.67568 3.26764H1.66216C1.16666 3.26764 0.76577 3.11208 0.459459 2.80097C0.153149 2.48986 0 2.09861 0 1.62724ZM0.175676 14.001V4.55451H3.17568V14.001H0.175676ZM4.83784 14.001H7.83784V8.72622C7.83784 8.39624 7.87388 8.1417 7.94595 7.96258C8.07207 7.64204 8.26351 7.37099 8.52027 7.14945C8.77703 6.9279 9.09909 6.81713 9.48649 6.81713C10.4955 6.81713 11 7.52891 11 8.95248V14.001H14V8.58481C14 7.18952 13.6847 6.13127 13.0541 5.41006C12.4234 4.68885 11.5901 4.32824 10.5541 4.32824C9.39189 4.32824 8.48649 4.85148 7.83784 5.89794V5.92622H7.82432L7.83784 5.89794V4.55451H4.83784C4.85585 4.85619 4.86486 5.79423 4.86486 7.36865C4.86486 8.94305 4.85585 11.1538 4.83784 14.001Z" fill="white"/>
</g>
<defs>
<clipPath id="clip0_238_1602">
<rect width="14" height="14" fill="white"/>
</clipPath>
</defs>
</svg>
