<svg width="249" height="234" viewBox="0 0 249 234" fill="none" xmlns="http://www.w3.org/2000/svg">
<path fill-rule="evenodd" clip-rule="evenodd" d="M236.803 73.4709C234.825 75.474 230.388 79.9753 226.943 83.4738C223.468 87.0014 220.58 89.8949 220.459 89.97C220.183 90.1404 219.939 90.068 219.779 89.7679C219.535 89.312 219.728 88.4975 220.32 87.4812C220.949 86.4011 221.373 85.9656 230.489 77.0267C236.521 71.1122 238.883 68.7658 238.931 68.6411C239.118 68.155 238.934 68.1348 235.189 68.2281C233.196 68.2779 230.045 68.3566 228.189 68.4031C226.332 68.4496 224.758 68.4566 224.692 68.4185C224.489 68.3031 224.408 68.0403 224.505 67.8162C224.683 67.41 224.899 67.2204 225.287 67.1314C225.494 67.0838 228.693 66.929 232.397 66.7872C241.237 66.4487 241.13 66.4509 241.321 66.6084C241.604 66.8427 241.681 67.1133 241.606 67.6019C241.523 68.1396 241.131 68.9396 240.685 69.4807C240.527 69.6721 238.78 71.4678 236.803 73.4709Z" fill="white"/>
<path d="M229 73.5003C139.464 95.5377 50.3762 216.122 1 164.492" stroke="white"/>
</svg>
