<svg width="112" height="139" viewBox="0 0 112 139" fill="none" xmlns="http://www.w3.org/2000/svg">
<path fill-rule="evenodd" clip-rule="evenodd" d="M100.771 132.632C101.65 130.221 103.629 124.811 105.168 120.61C106.72 116.374 107.977 112.851 107.991 112.7C108.023 112.356 107.865 112.038 107.55 111.812C107.071 111.468 106.468 111.663 105.857 112.358C105.208 113.096 105.014 113.612 101.207 124.747C98.6886 132.114 97.677 134.998 97.5921 135.051C97.2612 135.26 97.1707 135.022 95.7469 130.214C94.9889 127.653 93.7912 123.608 93.0854 121.224C92.3796 118.84 91.7543 116.817 91.6958 116.728C91.5181 116.46 91.2661 116.338 91.1183 116.45C90.8503 116.651 90.7789 116.917 90.86 117.41C90.9032 117.672 92.0571 121.776 93.424 126.529C96.6867 137.873 96.6458 137.736 96.8536 137.991C97.1626 138.37 97.4196 138.487 97.7974 138.423C98.213 138.351 98.7237 137.9 98.9966 137.362C99.0931 137.172 99.8916 135.043 100.771 132.632Z" fill="white"/>
<path d="M99 115C83.5 16.5002 27.5 -3.9998 1 1.81159" stroke="white"/>
</svg>
