<svg width="235" height="93" viewBox="0 0 235 93" fill="none" xmlns="http://www.w3.org/2000/svg">
<path fill-rule="evenodd" clip-rule="evenodd" d="M17.9071 90.3986C20.9986 89.4801 27.9419 87.4223 33.3365 85.8256C38.776 84.2156 43.2604 82.8598 43.4043 82.7816C43.7309 82.6041 43.806 82.3455 43.6134 82.0606C43.3207 81.6276 42.4258 81.4354 41.1007 81.5212C39.6925 81.6122 39.0242 81.806 25.0554 86.1746C15.8127 89.0652 12.1643 90.1835 12.0164 90.1711C11.4397 90.123 11.5291 89.9438 13.8362 86.5223C15.0648 84.7004 17.0061 81.8217 18.1502 80.1253C19.2943 78.4288 20.233 76.9762 20.236 76.8972C20.2455 76.657 20.0416 76.4624 19.7688 76.4511C19.2742 76.4306 18.9644 76.5445 18.6494 76.8627C18.4814 77.0323 16.4382 79.9217 14.1087 83.2836C8.54842 91.3081 8.61378 91.2103 8.65216 91.4579C8.70934 91.8261 8.92272 92.0209 9.43578 92.1734C10.0003 92.3413 10.9996 92.3423 11.7823 92.1758C12.0594 92.1169 14.8156 91.3172 17.9071 90.3986Z" fill="white"/>
<path d="M23.249 82.5C105.208 40.2503 230.23 72.3646 233.5 1" stroke="white" stroke-width="1.5"/>
</svg>
