<svg width="350" height="350" viewBox="0 0 350 350" fill="none" xmlns="http://www.w3.org/2000/svg">
<g clip-path="url(#clip0_299_1360)">
<path opacity="0.15" fill-rule="evenodd" clip-rule="evenodd" d="M257.178 16.0725C256.203 16.6745 255.3 17.2924 255.172 17.4454C254.884 17.7897 254.853 18.4962 255.079 19.5642C255.292 20.574 255.769 21.5459 256.59 22.649C256.934 23.1103 257.239 23.5553 257.267 23.6379C257.345 23.8615 258.754 34.0239 258.736 34.2345C258.716 34.4841 258.297 34.765 254.331 37.1879C252.422 38.354 249.076 40.4203 246.896 41.7796C244.715 43.1389 242.786 44.3015 242.608 44.3631C242.382 44.4415 242.159 44.4129 241.861 44.2675L241.435 44.06L240.081 44.5397C238.517 45.0933 237.462 45.2397 236.303 45.064C235.147 44.8888 234.3 44.5229 232.575 43.4538C230.79 42.3478 229.179 41.6561 228.498 41.7041C228.125 41.7304 227.282 42.2173 221.988 45.4642C209.837 52.9158 210.073 52.7757 209.804 52.7037C209.67 52.6676 209.434 52.6028 209.282 52.5598C209.036 52.4903 208.873 52.5606 207.845 53.1792C207.207 53.563 206.593 53.9462 206.48 54.0306C206.31 54.1576 206.212 54.1372 205.915 53.913C205.718 53.7638 205.369 53.5132 205.139 53.356L204.721 53.0702L203.998 53.3956C203.6 53.575 203.003 53.7561 202.668 53.7992C201.997 53.8856 201.49 54.1824 191.574 60.2962C189.23 61.7412 185.606 63.9606 183.52 65.2282C181.434 66.496 179.185 67.8854 178.522 68.3159C177.859 68.7463 176.957 69.2787 176.517 69.4991C175.967 69.7746 175.449 70.1465 174.86 70.6894C174.388 71.1238 173.722 71.6229 173.38 71.7989C173.038 71.9748 172.721 72.1992 172.677 72.2975C172.631 72.3987 172.658 72.6581 172.741 72.8957C172.847 73.2017 172.851 73.3624 172.756 73.4898C172.557 73.7557 172.228 73.485 171.807 72.7104C171.287 71.7524 170.916 71.3123 170.365 70.9984C169.418 70.4586 168.173 70.8526 166.676 72.1657C165.828 72.9098 165.324 73.1131 164.71 72.9591C164.434 72.8902 164.096 72.9026 163.824 72.9914C163.362 73.1424 163.161 73.3996 162.718 74.4092C162.532 74.8344 162.409 74.9225 159.404 76.7842C156.156 78.7961 155.898 78.9339 155.556 78.8424C155.391 78.7983 155.31 78.8638 155.157 79.1642C154.872 79.7262 154.564 79.7776 153.828 79.3855C153.047 78.969 152.857 78.9743 152.262 79.4289C151.999 79.6295 151.4 79.9768 150.931 80.2007C149.945 80.6714 149.548 81.1293 149.436 81.9255C149.357 82.4901 149.604 85.5748 149.903 87.7626C150.121 89.3519 150.121 89.6041 149.902 89.7895C149.834 89.8472 147 91.6056 143.604 93.6972C140.208 95.7886 135.463 98.7273 133.059 100.227C130.655 101.727 125.713 104.79 122.077 107.033C118.442 109.276 113.147 112.573 110.31 114.36C107.474 116.147 102.757 119.105 99.8279 120.932C96.8992 122.76 94.3824 124.349 94.235 124.463C93.5373 125.002 93.2109 125.948 92.7009 128.907C92.2541 131.5 92.1105 131.847 91.2851 132.339C90.7198 132.675 90.6361 132.912 90.3971 134.843C90.2063 136.385 90.1975 136.318 90.711 137.273C90.8641 137.558 90.874 137.765 90.7755 138.62C90.7114 139.176 90.5975 139.709 90.5224 139.804C90.4473 139.899 87.1526 143.324 83.2009 147.414C79.2491 151.505 75.7588 155.134 75.4446 155.48C74.6156 156.393 73.5811 157.269 72.8548 157.673C71.9408 158.182 71.1274 158.439 68.5408 159.037C64.8095 159.899 65.2082 159.695 62.119 162.31C57.0833 166.573 42.0597 179.367 37.6014 183.189C35.1423 185.297 32.4823 187.573 31.6904 188.246C30.052 189.64 29.0246 190.72 28.8448 191.237C28.7293 191.569 28.7451 191.66 29.0914 192.653C29.448 193.676 29.5129 193.791 30.8945 195.846C34.4764 201.175 40.2071 210.387 44.1905 217.221C45.8048 219.991 46.7034 221.439 47.3592 222.327C47.8628 223.01 48.393 223.78 48.5376 224.039C49.1291 225.098 49.9127 225.692 50.4648 225.501C50.7908 225.388 51.7795 224.421 52.5181 223.493C52.7641 223.184 53.8125 221.628 54.8478 220.036C55.8829 218.444 56.9764 216.786 57.2777 216.351C57.579 215.917 58.0593 215.169 58.345 214.69C59.0014 213.589 64.0108 206.061 66.3824 202.612C67.371 201.174 68.8658 198.967 69.7042 197.708C71.2875 195.329 72.7302 193.418 73.8096 192.27C74.6323 191.395 74.6571 191.35 74.7082 190.645C74.7322 190.314 74.8329 189.874 74.9317 189.668C75.0307 189.461 75.9875 188.12 77.0577 186.688C78.1279 185.255 79.6504 183.064 80.4411 181.817C82.7239 178.218 83.7741 176.683 85.6373 174.222C86.0384 173.692 86.9637 172.408 87.6935 171.37C88.4234 170.332 89.6476 168.656 90.4139 167.646C91.1802 166.636 92.9622 164.186 94.3739 162.2C99.9462 154.363 100.575 153.696 102.216 153.87C103.274 153.982 103.612 153.953 103.92 153.721C104.357 153.393 104.605 153.435 104.999 153.902C105.19 154.127 105.714 154.569 106.165 154.884C108.185 156.293 109.234 157.669 110.029 159.95C110.392 160.995 110.563 161.854 111.968 169.734C113.52 178.432 113.853 180.492 114.11 183.007C114.295 184.803 114.496 185.395 115.149 186.06C115.757 186.678 116.345 186.948 118.134 187.427C121.603 188.357 124.154 188.437 126.322 187.685C128.204 187.032 129.614 185.448 129.451 184.171C129.363 183.479 128.852 181.986 128.099 180.22C127.622 179.101 127.213 177.981 126.831 176.746C126.329 175.125 126.194 174.517 125.609 171.239C125.248 169.212 124.875 166.947 124.78 166.206C124.686 165.466 124.43 163.851 124.21 162.619C123.809 160.358 123.346 156.61 123.379 155.888C123.389 155.672 123.432 155.319 123.474 155.102C123.517 154.886 123.564 154.273 123.578 153.741C123.602 152.896 123.641 152.732 123.893 152.442C124.052 152.26 124.243 152.088 124.319 152.06C124.394 152.033 124.576 151.804 124.723 151.553C125.081 150.94 125.276 150.895 125.931 151.277C126.42 151.562 126.561 151.587 127.193 151.505C128.398 151.348 129.168 151.025 130.711 150.03C131.493 149.526 132.848 148.663 133.721 148.114C135.48 147.007 136.48 146.284 137.099 145.672C137.74 145.038 138.401 143.851 138.987 142.282C139.283 141.491 139.68 140.583 139.871 140.264C140.263 139.608 140.948 138.896 141.486 138.587C142.48 138.015 143.935 137.009 144.215 136.701C144.398 136.5 144.636 136.016 144.782 135.548C145.058 134.667 145.422 134.265 145.999 134.207C146.573 134.149 146.955 134.361 147.58 135.086C147.905 135.463 148.604 136.216 149.133 136.759C149.662 137.303 150.44 138.185 150.863 138.72C151.285 139.254 152.15 140.258 152.784 140.951C153.418 141.643 154.591 142.945 155.392 143.845C157.089 145.75 157.494 146.134 161.441 149.573C163.07 150.992 165.187 152.844 166.146 153.688C168.531 155.788 168.909 156.071 171.106 157.402C172.161 158.04 174.544 159.498 176.403 160.64C181.478 163.759 183.726 164.99 186.668 166.262C187.388 166.573 189.011 167.301 190.275 167.88C193.131 169.187 193.703 169.409 196.475 170.283C197.699 170.669 199.932 171.397 201.436 171.901C204.489 172.923 204.731 172.947 205.31 172.296C205.564 172.01 205.636 171.791 205.711 171.073C205.802 170.207 205.992 162.529 206.054 157.235C206.071 155.73 206.114 153.376 206.148 152.004C206.219 149.181 206.205 148.904 205.981 148.655C205.893 148.559 205.095 148.324 204.207 148.133C199.577 147.14 195.523 145.783 190.811 143.648C187.648 142.214 186.613 141.656 183.197 139.537C177.595 136.063 176.778 135.49 173.553 132.774C169.759 129.578 166.622 126.433 163.009 122.203C162.071 121.106 160.979 119.847 160.583 119.406C159.925 118.676 159.82 118.51 159.41 117.55C159.162 116.971 158.863 116.295 158.745 116.049C158.495 115.524 158.518 115.104 158.819 114.714C159.098 114.353 162.941 111.845 165.829 110.14C167.182 109.342 168.653 108.426 169.1 108.104C172.3 105.798 174.288 104.852 180.594 102.635C184.931 101.109 185.309 100.959 186.159 100.422C187.459 99.6004 188.631 98.608 190.868 96.4353C195.242 92.1871 198.36 89.7941 203.826 86.4909C205.244 85.6337 206.554 84.8287 206.736 84.702C206.919 84.5753 207.762 84.0874 208.609 83.618C209.457 83.1486 211.396 82.0029 212.919 81.0719C215.043 79.7735 215.762 79.2835 216.008 78.9682C216.306 78.5858 217.484 77.8469 217.54 78.0074C217.553 78.0445 217.537 78.1563 217.505 78.2556C217.457 78.4034 217.481 78.4087 217.636 78.2851C217.939 78.0429 217.973 77.7067 217.844 76.2247C217.777 75.4564 217.758 74.6446 217.802 74.4206C217.919 73.8258 217.894 73.846 220.788 72.0441C221.641 71.5133 223.48 70.356 224.876 69.4724C228.895 66.9267 236.081 62.6323 236.238 62.6826C236.316 62.7078 236.574 62.871 236.81 63.0452C237.698 63.6991 238.321 63.647 239.46 62.8235C239.815 62.5666 240.452 62.1836 240.874 61.9723C241.92 61.4486 242.049 61.1922 241.917 59.9021C241.878 59.525 241.922 59.2957 242.076 59.0686C242.326 58.6985 242.359 58.4183 242.205 57.9726C242.069 57.5805 241.787 57.3805 241.415 57.4127C241.132 57.4371 240.776 57.1503 240.854 56.9605C240.914 56.812 242.27 55.8827 242.872 55.5771C243.701 55.1562 244.964 54.3137 245.508 53.8187C246.368 53.0364 246.477 52.6798 246.251 51.3937C246.202 51.1138 246.241 51.0624 246.668 50.8419C246.927 50.7081 247.742 50.203 248.478 49.7194C249.214 49.2358 250.522 48.4286 251.385 47.9256C252.247 47.4226 253.504 46.6569 254.178 46.224C258.463 43.4721 261.989 41.3076 262.446 41.149C262.727 41.0516 262.886 41.0656 263.078 41.2049C263.219 41.3073 263.523 41.5272 263.752 41.6938C264.137 41.9733 264.398 42.0135 267.147 42.2185C270.442 42.4642 270.905 42.4221 271.653 41.8093C272.807 40.8639 273.65 39.1993 273.563 38.0381C273.523 37.513 273.136 36.4035 272.762 35.7406C272.376 35.0592 272.411 34.9802 273.367 34.3689C274.443 33.6801 274.621 33.3356 274.49 32.1926C274.243 30.0447 272.59 27.2869 271.362 26.9759C270.991 26.8819 270.528 27.0481 269.616 27.6028C268.786 28.1075 268.432 28.2121 268.253 28.0053C268.089 27.8166 266.202 24.6487 265.264 22.9886C264.85 22.2575 264.197 21.136 263.811 20.4964C263.354 19.739 262.924 18.8857 262.578 18.05C261.872 16.3404 261.247 15.466 260.343 14.92C259.789 14.5858 259.296 14.7655 257.178 16.0725ZM262.051 26.9332C263.016 27.1353 264.071 28.8446 263.379 29.0846C262.702 29.3198 261.398 28.1079 261.408 27.2522C261.412 26.9027 261.559 26.8298 262.051 26.9332ZM230.588 50.0813C230.849 50.23 231.167 51.0442 231.058 51.2834C230.993 51.4278 221.181 57.4974 217.27 59.8132C216.299 60.3879 215.431 60.9116 215.339 60.9771C215.08 61.1627 214.719 60.9049 214.451 60.3427C214.235 59.8899 214.229 59.8315 214.38 59.665C214.538 59.4899 220.059 56.1363 222.394 54.7969C223.015 54.4407 224.369 53.5776 225.403 52.8789C229.048 50.4159 230.141 49.826 230.588 50.0813ZM234.328 59.2275C234.423 59.3326 234.639 59.7467 234.809 60.1477C235.098 60.8325 235.108 60.8917 234.97 61.1204C234.835 61.3419 230.041 64.3237 225.079 67.2722C224.153 67.8223 222.354 68.9079 221.082 69.6846C219.809 70.4613 218.32 71.3386 217.772 71.634C216.557 72.2898 216.424 72.2842 216.175 71.5664C215.969 70.9729 215.997 70.935 217.124 70.2615C218.199 69.6197 218.389 69.4449 218.393 69.0941C218.395 68.9305 218.484 68.6829 218.591 68.5439C218.699 68.405 221.834 66.431 225.558 64.1572C229.282 61.8835 232.578 59.8627 232.882 59.6665C233.734 59.1174 234.122 58.9994 234.328 59.2275ZM134.786 131.599C135.263 131.947 135.868 132.836 136.618 134.293C137.858 136.701 138.038 137.813 137.585 140.3C137.013 143.441 134.973 145.823 133.18 145.442C132.115 145.215 130.013 143.6 129.142 142.341C128.588 141.539 127.964 139.944 127.839 139.007C127.657 137.655 127.872 136.014 128.304 135.454C128.454 135.26 130.116 134.03 132.927 132.032C133.204 131.835 133.649 131.593 133.915 131.495C134.362 131.33 134.428 131.338 134.786 131.599ZM122.764 139.445C122.905 139.497 123.615 140.174 124.342 140.949C126.046 142.764 127.729 144.409 129.293 145.788C130.561 146.906 130.833 147.277 130.662 147.653C130.591 147.809 129.646 148.426 128.464 149.087C127.522 149.614 126.456 149.431 125.758 148.623C125.521 148.348 124.704 146.916 123.431 144.539L121.469 140.879L121.498 140.44C121.551 139.643 122.113 139.201 122.764 139.445Z" fill="#383635"/>
</g>
<defs>
<clipPath id="clip0_299_1360">
<rect width="350" height="350" fill="white"/>
</clipPath>
</defs>
</svg>
