<svg width="45" height="19" viewBox="0 0 45 19" fill="none" xmlns="http://www.w3.org/2000/svg">
<path d="M43 9.5L43.6319 10.275L44.5824 9.5L43.6319 8.72499L43 9.5ZM31.9438 17.225C31.5158 17.574 31.4517 18.2039 31.8007 18.6319C32.1498 19.06 32.7797 19.124 33.2077 18.775L31.9438 17.225ZM33.2077 0.22499C32.7797 -0.124026 32.1498 -0.059975 31.8007 0.368051C31.4517 0.796078 31.5158 1.42599 31.9438 1.77501L33.2077 0.22499ZM0 10.5H43V8.5H0V10.5ZM33.2077 18.775L43.6319 10.275L42.368 8.72499L31.9438 17.225L33.2077 18.775ZM43.6319 8.72499L33.2077 0.22499L31.9438 1.77501L42.368 10.275L43.6319 8.72499Z" fill="#060403"/>
</svg>
