<svg width="406" height="87" viewBox="0 0 406 87" fill="none" xmlns="http://www.w3.org/2000/svg">
<path fill-rule="evenodd" clip-rule="evenodd" d="M166.299 0.0448278C165.74 0.0942858 161.97 0.243832 157.92 0.376736C149.724 0.645826 142.945 0.939527 136.846 1.28925C134.611 1.41747 131.47 1.59537 129.863 1.68468C128.258 1.77375 126.943 1.92634 126.943 2.02362C126.943 2.12089 126.43 2.19942 125.801 2.19801C123.508 2.19309 117.522 2.5264 116.533 2.71392C115.975 2.81987 113.804 3.02778 111.709 3.17592C109.614 3.32406 107.215 3.55518 106.377 3.68972C105.539 3.82403 103.483 4.0739 101.807 4.24501C96.2894 4.80827 86.7842 5.93479 83.0178 6.47179C82.1799 6.59134 79.8948 6.89277 77.9397 7.14194C75.9846 7.39087 72.4426 7.93584 70.0686 8.35284C67.6946 8.76983 64.438 9.33403 62.8323 9.60663C61.2261 9.87924 59.9124 10.2116 59.9124 10.3455C59.9124 10.4793 58.9933 10.6056 57.87 10.6263C56.7396 10.6471 55.1735 10.8787 54.3635 11.145C53.5587 11.4096 52.6466 11.626 52.3369 11.626C52.0271 11.626 49.5485 12.1714 46.8292 12.838C44.1098 13.5047 41.1996 14.2109 40.3617 14.4076C39.5238 14.6042 38.3812 14.9647 37.8226 15.2083C37.264 15.4521 35.8929 15.8688 34.7758 16.1344C30.9738 17.038 22.4624 20.1046 17.2563 22.447C12.4585 24.6055 7.60786 27.4413 7.60786 28.088C7.60786 28.2767 7.14982 28.6747 6.59021 28.9724C6.0306 29.2703 4.97131 30.1038 4.236 30.8248C3.50069 31.5458 2.7019 32.3189 2.46069 32.5427C2.21948 32.7666 2.02194 33.1121 2.02194 33.3104C2.02194 33.5089 1.5578 34.2749 0.991085 35.013C-0.424184 36.8554 -0.322114 39.8986 1.28714 43.8407C1.7137 44.8849 6.03771 48.8238 8.09587 50.0429C9.09778 50.6364 10.8056 51.7022 11.8907 52.4112C12.9754 53.1203 14.3409 53.9641 14.9249 54.2864C17.2507 55.57 28.3555 60.4893 31.2211 61.5054C32.8969 62.0996 34.3822 62.6441 34.5218 62.7154C35.8706 63.4038 46.4595 66.4639 47.5193 66.4711C47.825 66.4732 48.4988 66.691 49.0158 66.9549C49.5333 67.2186 50.7683 67.6072 51.7605 67.8182C52.7528 68.0292 54.4788 68.4797 55.596 68.8191C56.7132 69.1585 58.5357 69.6301 59.6458 69.8671C60.7564 70.1038 61.9721 70.4395 62.3484 70.6132C62.7242 70.7866 63.5966 70.9287 64.2862 70.9287C64.9763 70.9287 65.9945 71.1237 66.549 71.3623C67.1035 71.6007 68.5162 71.9286 69.6878 72.0906C70.8598 72.2525 72.853 72.629 74.1174 72.9267C75.3819 73.2246 77.6731 73.699 79.2092 73.9808C80.7454 74.2627 83.2875 74.7461 84.8586 75.055C86.4298 75.3639 87.9294 75.6166 88.1909 75.6166C88.4529 75.6166 89.5665 75.8152 90.6665 76.058C91.7664 76.3006 93.4061 76.5725 94.311 76.662C95.2154 76.7513 96.0858 76.922 96.2453 77.0411C96.4042 77.1601 96.9521 77.2574 97.462 77.2574C98.7097 77.2574 103.493 77.9133 105.276 78.3286C106.066 78.5131 107.116 78.6638 107.61 78.6638C108.103 78.6638 109.199 78.8232 110.044 79.018C110.89 79.2128 112.925 79.4861 114.566 79.6255C116.206 79.765 117.777 79.9586 118.057 80.0559C119.113 80.4232 140.577 82.7025 146.748 83.1026C148.564 83.2203 150.849 83.4321 151.826 83.5733C153.672 83.8395 161.929 84.5017 165.029 84.6318C166.007 84.6728 168.406 84.8322 170.361 84.9862C172.316 85.1402 175.801 85.3629 178.105 85.481C180.41 85.5992 184.295 85.7986 186.738 85.9243C189.182 86.0499 195.066 86.2599 199.814 86.3907C204.562 86.5217 210.618 86.7308 213.271 86.8558C215.925 86.9805 220.038 87.0348 222.412 86.9767C224.786 86.9183 229.47 86.8253 232.822 86.7697C244.064 86.5839 258.21 86.0825 258.536 85.8584C258.714 85.7363 260.973 85.5464 263.555 85.4365C266.137 85.3265 270.791 85.0668 273.895 84.8596C277 84.6522 281.94 84.3388 284.873 84.1632C287.805 83.9874 291.233 83.69 292.49 83.502C293.747 83.314 296.489 82.9338 298.584 82.657C300.678 82.3802 302.963 82.0342 303.662 81.8882C304.36 81.7421 306.074 81.4951 307.47 81.3392C312.891 80.734 316.136 80.2502 316.905 79.9326C317.346 79.7504 317.966 79.6014 318.284 79.6014C319.893 79.6014 326.761 78.3445 327.284 77.9543C327.451 77.8289 328.215 77.7262 328.981 77.7262C329.746 77.7262 330.644 77.601 330.975 77.4482C331.306 77.2951 332.052 77.1367 332.631 77.0957C334.07 76.9944 338.058 76.1409 338.446 75.8517C338.619 75.7223 339.106 75.6166 339.528 75.6166C340.514 75.6166 350.664 73.3497 352.665 72.6829C353.503 72.4035 355.377 71.9211 356.83 71.6105C358.282 71.2999 359.748 70.8086 360.089 70.5184C360.429 70.2285 361.002 69.991 361.36 69.991C362.559 69.991 364.599 69.4508 364.599 69.1334C364.599 68.7853 369.004 67.4242 370.153 67.4171C371.197 67.4108 374.24 66.4116 374.244 66.0743C374.246 65.9184 375.206 65.391 376.377 64.9023C377.548 64.4138 380.004 63.3438 381.836 62.525C383.667 61.706 386.365 60.5467 387.831 59.9485C389.298 59.3505 390.497 58.7285 390.497 58.5663C390.497 58.4038 390.799 58.2711 391.168 58.2711C391.802 58.2711 397.099 55.422 397.099 55.081C397.099 54.9929 397.859 54.3825 398.788 53.7248C399.717 53.0668 400.788 52.1592 401.169 51.708C401.549 51.2568 402.37 50.5086 402.991 50.0452C404.42 48.9803 405.664 46.6783 405.956 44.5589C406.236 42.5278 405.16 40.113 403.155 38.2728C402.338 37.5227 401.669 36.7051 401.669 36.4562C401.669 36.207 401.33 36.0033 400.914 36.0033C400.499 36.0033 399.825 35.6342 399.417 35.1829C399.008 34.7317 398.462 34.3625 398.202 34.3625C397.942 34.3625 397.453 34.0543 397.115 33.6776C396.306 32.7757 382.671 26.8618 381.4 26.8618C381.198 26.8618 380.264 26.5454 379.326 26.1586C378.387 25.7719 377.282 25.4554 376.87 25.4554C376.458 25.4554 375.372 25.1917 374.456 24.8694C373.541 24.5471 372.594 24.2834 372.351 24.2834C372.109 24.2834 370.551 23.8779 368.889 23.3822C367.228 22.8867 365.221 22.4078 364.43 22.3182C363.639 22.2285 362.101 21.8956 361.012 21.5785C359.924 21.2613 358.596 21.0019 358.062 21.0019C357.528 21.0019 356.959 20.8437 356.798 20.6503C356.638 20.4569 355.944 20.2987 355.257 20.2987C354.57 20.2987 353.703 20.1583 353.331 19.9867C352.96 19.8149 351.286 19.4907 349.614 19.2659C347.94 19.0414 345.658 18.6647 344.54 18.4289C341.103 17.7039 339.714 17.4859 338.53 17.4859C337.904 17.4859 336.496 17.2749 335.4 17.0171C334.304 16.7593 332.77 16.5483 331.992 16.5483C331.213 16.5483 330.576 16.4531 330.576 16.3369C330.576 16.0556 327.74 15.6107 325.947 15.6107C325.16 15.6107 323.766 15.4612 322.849 15.2786C320.804 14.8712 308.192 13.5011 306.487 13.5011C305.807 13.5011 304.708 13.406 304.045 13.2895C303.382 13.173 300.682 12.9608 298.045 12.8179C295.409 12.6749 292.223 12.4581 290.966 12.3359C289.71 12.2141 286.053 11.956 282.841 11.7628C279.63 11.5697 274.945 11.2882 272.431 11.1375C269.918 10.9865 265.806 10.8156 263.295 10.7577C260.785 10.6996 258.5 10.5644 258.217 10.4568C257.778 10.2894 251.887 10.1617 247.802 10.2308C247.104 10.2425 245.505 10.1781 244.248 10.0876C242.991 9.99689 240.078 9.91767 237.773 9.91157C235.469 9.90571 233.584 9.83938 233.584 9.76437C233.584 9.56794 229.094 9.62326 226.85 9.84758C225.682 9.96431 224.696 9.9465 224.311 9.80211C223.784 9.60451 207.28 9.35605 203.877 9.49458C203.318 9.51732 199.231 9.52318 194.794 9.50771C190.357 9.49224 184.873 9.54802 182.606 9.63147C180.34 9.71515 177.229 9.81969 175.693 9.86423C169.028 10.0576 164.213 10.269 163.506 10.3998C163.087 10.4774 162.059 10.5662 161.221 10.5972C159.234 10.671 151.824 11.1161 148.272 11.3752C145.096 11.6065 141.033 12.1048 140.654 12.3092C140.515 12.3847 139.501 12.4665 138.401 12.4914C137.302 12.5162 134.445 12.8113 132.054 13.1474C123.813 14.3054 122.762 14.4387 121.869 14.4387C121.377 14.4387 120.69 14.597 120.342 14.7903C119.994 14.9837 119.03 15.1419 118.2 15.1419C117.37 15.1419 116.083 15.3304 115.342 15.5606C113.587 16.1056 111.765 16.4841 110.186 16.6315C107.099 16.9198 104.984 17.2339 103.134 17.6791C102.04 17.9421 101.024 18.101 100.874 18.0321C100.725 17.9632 100.08 18.0759 99.4414 18.2824C98.8026 18.4889 97.9094 18.6579 97.4559 18.6579C97.0029 18.6579 96.2305 18.8628 95.739 19.1133C95.2479 19.3639 94.1866 19.6358 93.3812 19.7174C92.5753 19.7992 91.7857 19.9633 91.6262 20.0823C91.4673 20.2014 90.798 20.2987 90.1393 20.2987C89.4375 20.2987 88.489 20.5654 87.8466 20.9433C87.2443 21.2979 86.896 21.4562 87.0727 21.2949C87.7013 20.7218 85.7661 21.0068 84.2873 21.7051C83.4682 22.0918 82.3333 22.4083 81.7655 22.4083C81.1973 22.4083 80.7327 22.5138 80.7327 22.6427C80.7327 22.7716 80.2188 22.8804 79.5901 22.8846C78.9614 22.8886 78.0194 23.0416 77.4964 23.2245C76.5879 23.5421 76.6021 23.5634 77.8219 23.7047C78.71 23.8076 79.6957 23.6794 81.0582 23.2838C82.1362 22.9706 84.2178 22.5824 85.6838 22.4209C87.1504 22.2592 88.3498 22.0321 88.3498 21.916C88.3498 21.8 88.6007 21.7051 88.9079 21.7051C89.2146 21.7051 90.1861 21.553 91.0661 21.3673C92.8937 20.9815 97.8992 20.1574 105.615 18.9722C108.548 18.5217 111.344 18.0557 111.829 17.9367C112.314 17.8176 113.08 17.7203 113.532 17.7203C113.983 17.7203 116.398 17.4039 118.899 17.0171C121.4 16.6304 123.997 16.3139 124.67 16.3139C125.343 16.3139 126.758 16.1412 127.815 15.9297C131.121 15.269 131.694 15.1818 134.561 14.9029C136.097 14.7533 139.182 14.4324 141.416 14.1893C145.448 13.7508 147.779 13.5501 154.619 13.0527C156.574 12.9105 160.345 12.6315 162.998 12.4328C171.97 11.7607 175.415 11.6117 184.58 11.4987C189.607 11.4368 195.663 11.2711 198.037 11.1302C203.374 10.814 226.898 10.6703 227.275 10.9518C227.655 11.2352 229.898 11.2106 230.288 10.919C230.464 10.788 230.797 10.7348 231.028 10.8009C231.595 10.9626 234.344 11.0983 240.439 11.2655C243.232 11.3423 248.213 11.5235 251.508 11.6686C256.016 11.8669 257.643 11.8653 258.084 11.6618C258.908 11.2816 259.482 11.3259 259.482 11.7696C259.482 12.058 259.85 12.1231 261.028 12.0432C261.878 11.9858 262.692 12.0263 262.835 12.1339C262.979 12.2412 264.169 12.3289 265.479 12.3287C268.296 12.3282 276.094 12.9421 279.178 13.4074C280.375 13.5879 282.167 13.7355 283.162 13.7355C284.157 13.7355 286.228 13.9043 287.764 14.1103C289.3 14.3166 291.277 14.4366 292.156 14.3771C293.035 14.3173 294.212 14.4071 294.772 14.5761C295.954 14.9326 301.355 15.3658 302.659 15.2083C303.147 15.1494 303.707 15.2209 303.903 15.3672C304.124 15.532 304.485 15.5526 304.849 15.4216C306.33 14.8892 309.248 14.8977 309.248 15.4342C309.248 15.8582 310.971 16.2987 312.66 16.3064C313.559 16.3106 315.044 16.5047 315.961 16.7377C316.877 16.9709 319.221 17.2944 321.17 17.4566C323.119 17.6188 324.947 17.8314 325.233 17.9289C325.518 18.0264 327.351 18.236 329.306 18.3944C333.582 18.7413 337.086 19.1862 342.509 20.0711C344.744 20.4356 347.6 20.865 348.857 21.0255C350.114 21.1859 351.485 21.4353 351.904 21.5799C352.963 21.9451 354.693 22.2829 361.551 23.464C362.806 23.6803 363.949 23.9389 364.09 24.0387C364.477 24.3144 368.519 25.221 369.361 25.221C369.768 25.221 370.176 25.3003 370.27 25.3968C370.49 25.6254 373.85 26.6471 376.93 27.422C380.078 28.2141 381.884 28.7522 383.097 29.2599C383.635 29.485 384.508 29.7327 385.038 29.8103C385.593 29.8916 385.886 30.0892 385.73 30.2772C385.45 30.6131 388.134 31.8943 391.952 33.2489C393.107 33.6586 394.052 34.1185 394.052 34.2704C394.052 34.4223 394.357 34.6009 394.731 34.667C395.428 34.7906 398.115 37.1261 398.115 37.609C398.115 37.7571 398.308 37.8785 398.544 37.8785C398.781 37.8785 399.398 38.6431 399.916 39.5779C401.167 41.8344 401.075 44.6083 399.693 46.2929C399.122 46.9886 398.777 47.6487 398.925 47.7596C399.073 47.8702 398.837 48.0242 398.4 48.1016C397.934 48.1843 397.607 48.5216 397.607 48.9203C397.607 49.2932 397.354 49.5984 397.045 49.5984C396.735 49.5984 396.598 49.7379 396.74 49.9083C396.882 50.0787 396.555 50.3457 396.013 50.5018C395.471 50.6579 395.165 50.8878 395.332 51.0125C395.499 51.1372 395.416 51.2392 395.148 51.2392C394.722 51.2392 394.191 51.5688 391.767 53.3392C391.488 53.5431 390.723 54.0546 390.069 54.4753C389.415 54.8963 389.007 55.3951 389.164 55.5838C389.35 55.8074 389.129 55.9272 388.531 55.9272C388.026 55.9272 387.062 56.2795 386.389 56.7098C384.665 57.8124 381.802 58.9139 380.167 59.1033C379.403 59.1919 378.189 59.6208 377.468 60.0568C376.747 60.4928 375.854 60.8495 375.482 60.8495C375.11 60.8495 374.623 60.9852 374.4 61.151C374.176 61.3167 373.308 61.6912 372.47 61.9833C371.632 62.2751 369.895 62.9397 368.609 63.4595C367.324 63.9797 365.724 64.5312 365.055 64.6852C364.385 64.8392 363.837 65.1205 363.837 65.3101C363.837 65.5199 363.242 65.6842 362.314 65.7299C361.476 65.7714 360.267 66.0614 359.628 66.3745C358.988 66.6877 358.148 66.9439 357.762 66.9439C357.376 66.9439 356.381 67.2076 355.551 67.5299C354.721 67.8522 353.711 68.1159 353.306 68.1159C352.901 68.1159 352.161 68.3242 351.662 68.5786C351.162 68.8331 350.27 69.1114 349.679 69.1967C349.087 69.2822 347.648 69.654 346.48 70.0232C345.313 70.3923 343.939 70.6942 343.428 70.6942C342.917 70.6942 341.93 70.9373 341.235 71.2345C339.903 71.8032 336.9 72.5659 335.956 72.5746C335.65 72.5774 334.829 72.786 334.13 73.0382C333.432 73.2904 332.496 73.499 332.05 73.5019C330.96 73.5089 328.037 74.1945 328.037 74.4432C328.037 74.5524 327.367 74.7097 326.548 74.7927C325.73 74.8757 324.79 75.0939 324.46 75.2774C324.129 75.4612 323.656 75.5535 323.409 75.483C323.161 75.4124 322.959 75.5353 322.959 75.7563C322.959 76.133 322.9 76.1334 322.016 75.7643C321.174 75.4127 321.004 75.4087 320.43 75.7279C320.077 75.9246 319.301 76.0868 318.707 76.0887C316.859 76.0941 315.402 76.3538 315.636 76.636C315.783 76.8132 315.067 76.9135 313.546 76.9285C312.273 76.941 310.968 77.0729 310.646 77.2215C310.324 77.3701 309.322 77.4918 308.42 77.4918C307.519 77.4918 306.479 77.6238 306.11 77.7848C305.741 77.946 304.534 78.0982 303.428 78.1233C302.322 78.1481 300.951 78.2669 300.381 78.3874C299.298 78.6164 295.696 79.0079 292.236 79.2727C291.119 79.3581 289.305 79.6253 288.205 79.8662C287.105 80.1074 285.55 80.3046 284.748 80.3046C282.95 80.3046 278.846 80.7241 277.602 81.0352C277.094 81.1622 275.717 81.1995 274.543 81.1184C272.777 80.996 272.243 81.0546 271.454 81.4571C270.702 81.8408 270.348 81.8856 269.783 81.669C268.352 81.1207 259.813 81.4946 258.984 82.1418C258.626 82.4207 258.373 82.4538 258.091 82.258C257.804 82.059 257.008 82.0461 255.162 82.2112C253.768 82.3359 251.401 82.3708 249.904 82.2888C248.003 82.1844 247.284 82.2163 247.522 82.394C247.711 82.5356 247.511 82.6485 247.071 82.6485C246.636 82.6485 246.279 82.548 246.279 82.4252C246.279 82.1732 241.245 82.3736 240.439 82.6577C240.16 82.7561 233.14 82.8403 224.84 82.8443C216.54 82.8485 208.713 82.9237 207.448 83.0114C205.997 83.1117 205.146 83.0822 205.146 82.9315C205.146 82.5815 200.182 82.3131 199.381 82.62C198.909 82.8007 198.555 82.7939 198.126 82.596C197.669 82.3848 197.387 82.386 196.92 82.6017C196.181 82.9427 194.632 82.972 194.398 82.6495C194.156 82.3159 187.22 81.9568 183.45 82.0827C180.982 82.165 179.952 82.0963 178.904 81.7792C178.088 81.5326 177.478 81.4667 177.372 81.6137C177.253 81.7773 176.149 81.7918 174.032 81.658C172.293 81.5478 170.173 81.4196 169.323 81.3732C168.473 81.3268 166.915 81.1224 165.862 80.9194C163.892 80.5394 158.988 80.3514 158.047 80.6198C157.756 80.7028 157.398 80.6255 157.251 80.4483C156.84 79.9542 149.499 79.4099 148.634 79.8093C147.865 80.1642 147.256 80.1374 147.256 79.7488C147.256 79.5304 146.287 79.3768 144.224 79.2692C142.557 79.182 141.047 79.0018 140.868 78.8684C140.573 78.6478 139.993 78.6725 136.846 79.0386C135.884 79.1506 135.878 79.1389 136.739 78.8192C137.587 78.5039 137.542 78.4648 136.062 78.2266C135.191 78.0865 133.354 77.9029 131.98 77.8188C130.606 77.7346 129.483 77.5949 129.483 77.5082C129.483 77.4217 127.711 77.2154 125.547 77.0502C123.383 76.8849 121.154 76.6623 120.596 76.5556C118.828 76.2181 114.338 75.6164 113.645 75.6241C113.23 75.6288 113.348 75.7605 113.957 75.9731C114.495 76.1611 114.77 76.3915 114.568 76.4848C113.994 76.7499 112.454 76.1841 112.617 75.768C112.712 75.5247 112.272 75.3464 111.347 75.2535C110.569 75.1752 109.475 75.0208 108.916 74.9099C106.864 74.503 105.615 74.413 105.615 74.6725C105.615 74.815 105.127 74.7215 104.53 74.4648C103.252 73.9151 99.4247 73.2726 97.43 73.2726C96.6581 73.2726 95.8964 73.1754 95.7375 73.0563C95.578 72.9372 94.7147 72.7656 93.8194 72.6749C92.2813 72.5188 91.8207 72.4351 89.3726 71.8662C88.8175 71.7373 88.0111 71.6319 87.5805 71.6319C87.1499 71.6319 85.4898 71.3323 83.8917 70.9659C82.2942 70.5998 79.844 70.1594 78.4475 69.9871C77.051 69.815 75.7942 69.6029 75.6545 69.5155C75.5149 69.4283 74.1438 69.1714 72.6077 68.9445C71.0715 68.7176 68.86 68.28 67.6931 67.9722C66.5261 67.6644 65.1413 67.4127 64.6163 67.4127C64.0912 67.4127 63.2177 67.2578 62.6754 67.0686C62.1336 66.8792 61.1753 66.721 60.5472 66.717C59.919 66.7128 59.4046 66.6089 59.4046 66.4861C59.4046 66.3633 58.5479 66.0764 57.5003 65.8488C55.4609 65.4055 51.4355 64.2148 50.3879 63.7448C50.037 63.5873 49.2946 63.3918 48.7375 63.3103C48.1804 63.2287 47.7204 63.0372 47.7143 62.8848C47.7087 62.7322 45.9776 62.2384 43.8681 61.7871C41.7587 61.3359 39.8782 60.846 39.6893 60.6984C39.5004 60.5509 37.5819 59.892 35.4258 59.2346C33.2701 58.5771 30.1587 57.432 28.5119 56.6902C26.8651 55.9483 24.0513 54.7083 22.2587 53.9348C20.4661 53.1613 18.3582 52.0538 17.5752 51.4736C16.7921 50.8935 14.9142 49.5246 13.403 48.4316C11.8912 47.3386 10.6547 46.323 10.6547 46.1748C10.6547 46.0267 10.312 45.7742 9.89301 45.6137C9.47407 45.4531 9.1313 45.136 9.1313 44.9086C9.1313 44.6813 8.79005 44.1932 8.37263 43.8238C7.95571 43.4546 7.61294 42.8834 7.61091 42.5548C7.60939 42.2259 7.35142 41.8387 7.0381 41.6941C6.68212 41.5298 6.46732 40.3925 6.46478 38.6586C6.46173 36.5092 6.69482 35.5437 7.50325 34.3626C9.5086 31.4324 10.3506 30.488 11.7668 29.5809C12.5514 29.0781 13.1938 28.5427 13.1938 28.3911C13.1938 28.2396 13.7651 27.8679 14.4633 27.565C15.1616 27.2622 15.7328 26.9343 15.7328 26.8361C15.7328 26.5792 19.6257 24.5908 22.5548 23.3513C23.933 22.7681 26.0998 21.8429 27.3703 21.2949C28.6404 20.7469 29.9693 20.2987 30.3238 20.2987C30.6777 20.2987 30.9672 20.1909 30.9672 20.0594C30.9672 19.9276 31.5385 19.6998 32.2367 19.5528C32.9349 19.4061 33.5062 19.1445 33.5062 18.9718C33.5062 18.7993 33.9495 18.6579 34.4919 18.6579C35.0342 18.6579 35.6055 18.5625 35.7614 18.4458C36.059 18.2236 39.4623 17.3064 45.4398 15.8374C51.1359 14.4376 52.9295 14.0225 55.0882 13.6045C56.2054 13.3882 57.805 13.0771 58.6429 12.9135C59.4808 12.7497 60.7376 12.5382 61.4358 12.4438C62.1341 12.3491 62.9339 12.1937 63.2132 12.0983C63.4925 12.0031 64.3705 11.8533 65.1647 11.7657C65.9584 11.678 67.7723 11.3468 69.1952 11.0301C70.6181 10.7132 72.1994 10.454 72.7097 10.454C73.2196 10.454 74.0341 10.3614 74.5191 10.2484C75.6779 9.97815 78.514 9.59233 80.7327 9.40341C81.7102 9.3202 83.6526 9.06119 85.049 8.8282C90.2445 7.96045 95.3007 7.37235 100.537 7.02638C101.515 6.96168 102.772 6.82198 103.33 6.71557C103.889 6.60938 105.945 6.39538 107.901 6.24044C109.856 6.08527 113.74 5.76297 116.533 5.52435C122.887 4.98125 141.958 3.70144 145.986 3.54791C147.104 3.50548 149.731 3.35945 151.826 3.2235C153.921 3.08755 162.49 2.85971 170.869 2.71673C186.461 2.45092 195.498 1.97439 195.498 1.41793C195.498 1.05953 196.648 0.843653 198.556 0.843653C199.355 0.843653 200.134 0.74966 200.288 0.634804C200.442 0.519949 198.799 0.357746 196.636 0.274301C192.027 0.0963931 167.782 -0.086904 166.299 0.0448278ZM283.857 12.7979C283.857 12.9269 283.757 13.0323 283.633 13.0323C283.51 13.0323 283.268 12.9269 283.095 12.7979C282.923 12.669 283.024 12.5635 283.319 12.5635C283.615 12.5635 283.857 12.669 283.857 12.7979ZM375.125 63.1007C374.957 63.1785 374.519 63.1869 374.152 63.1192C373.747 63.0444 373.868 62.9889 374.459 62.9776C374.994 62.9675 375.294 63.0229 375.125 63.1007ZM340.499 72.5537C340.315 72.6913 339.778 72.8005 339.305 72.7963C338.551 72.7898 338.566 72.7473 339.425 72.4473C340.469 72.0828 341.052 72.1407 340.499 72.5537ZM311.141 77.8678C310.973 77.9456 310.534 77.954 310.168 77.8863C309.763 77.8115 309.883 77.756 310.475 77.7447C311.01 77.7346 311.31 77.7899 311.141 77.8678ZM254.658 82.8829C254.831 83.0119 254.615 83.1173 254.18 83.1173C253.745 83.1173 253.388 83.0119 253.388 82.8829C253.388 82.754 253.603 82.6485 253.866 82.6485C254.129 82.6485 254.485 82.754 254.658 82.8829Z" fill="#060403"/>
</svg>
