<svg width="350" height="350" viewBox="0 0 350 350" fill="none" xmlns="http://www.w3.org/2000/svg">
<path opacity="0.15" fill-rule="evenodd" clip-rule="evenodd" d="M172.195 28.6802C171.322 29.8972 171.138 30.8922 171.427 32.8355C171.71 34.7331 171.394 35.8972 170.203 37.3503C169.136 38.6513 174.696 35.407 117.062 68.3596C89.3027 84.2307 72.8317 93.5385 72.097 93.7688C70.8434 94.1619 69.6959 94.0341 68.383 93.3543C67.247 92.7663 66.4243 92.7189 64.9759 93.1577C62.8296 93.8083 44.2864 102.345 44.1836 102.73C44.1459 102.87 44.9215 104.535 45.907 106.428C47.009 108.545 47.7912 110.345 47.939 111.103C48.5522 114.244 48.3146 117.287 47.4157 117.806C47.1736 117.946 46.3221 118.095 45.5234 118.138C43.7363 118.233 43.1087 118.583 42.3192 119.923C41.6276 121.097 41.8175 121.927 43.0383 123.071C43.7503 123.738 44.6645 124.062 46.9851 124.468C47.6759 124.589 48.658 124.912 49.1678 125.187C51.0395 126.196 51.2604 126.58 52.5068 130.99C53.9117 135.961 54.5434 138.402 54.8437 140.024C55.2047 141.972 56.558 144.652 57.3945 145.075C58.0059 145.384 60.9926 145.324 61.569 144.991C62.174 144.642 67.4339 144.066 70.5424 144.008C70.924 144.001 72.2454 144.314 73.4792 144.705C75.9792 145.495 77.3078 146.534 78.5321 148.656C79.4455 150.238 80.3926 153.133 80.5073 154.693C80.5569 155.368 80.6541 156.019 80.7232 156.139C80.7925 156.259 80.889 156.861 80.9378 157.478C81.186 160.617 81.4319 162.767 81.9958 166.725C82.2048 168.192 82.9017 171.391 83.677 174.441C83.9743 175.611 84.3411 177.225 84.4919 178.028C84.6431 178.831 84.896 179.919 85.054 180.446C85.2122 180.974 85.7761 183.143 86.3072 185.267C87.8097 191.277 88.7351 194.649 90.8561 201.843C93.1718 209.698 94.7557 211.561 98.3037 210.602C100.11 210.113 120.031 198.876 129.03 193.269C135.592 189.181 135.711 189.095 136.234 188.044C136.726 187.056 136.716 186.845 136.102 185.215C135.737 184.246 134.648 182.084 133.683 180.411C131.008 175.774 128.345 168.958 126.998 163.298C126.112 159.577 125.547 157.041 125.224 155.331C125.023 154.274 124.74 152.791 124.593 152.038C124.198 149.998 124.016 149.009 123.506 146.113C123.25 144.667 122.948 143.128 122.832 142.691C122.391 141.023 122.344 138.603 122.725 137.177C123.459 134.428 125.942 132.252 129.648 131.111C133.117 130.042 135.676 129.104 137.862 128.101C139.119 127.525 141.181 126.59 142.444 126.025C145.906 124.475 155.073 119.106 160.271 115.585C162.808 113.865 165.071 112.287 165.299 112.078C165.528 111.87 165.938 111.033 166.212 110.22C166.742 108.643 166.565 107.461 164.946 101.766C163.97 98.3363 163.019 94.7277 162.504 92.5073C162.247 91.3985 161.936 90.1718 161.812 89.7815C161.364 88.3639 161.238 84.708 161.61 83.8911C162.559 81.81 163.008 81.5125 181.434 70.7694C190.887 65.2584 198.833 60.5241 199.093 60.2492C200.33 58.9375 200.111 56.7433 198.455 53.8758C197.339 51.9423 195.735 48.4526 194.071 44.3363L192.896 41.4329L196.509 39.3473L200.121 37.2618L197.492 32.7079L194.863 28.1542L194.163 28.3908C193.777 28.5208 192.578 28.9926 191.497 29.439C188.626 30.6247 187.703 30.8626 186.315 30.7769C184.509 30.665 182.92 29.8493 180.743 27.9164C179.687 26.9785 178.539 26.0783 178.192 25.9164C176.919 25.3218 173.461 26.9153 172.195 28.6802ZM104.416 85.9698C105.351 86.1717 105.397 86.3316 104.931 87.7334C104.02 90.4713 104.732 89.9195 94.4358 95.8623L85.1381 101.229L83.4957 101.193C81.913 101.158 81.8583 101.132 81.9948 100.492C82.4357 98.4268 82.6123 98.2596 87.5449 95.2298C90.0773 93.6742 94.7545 90.9211 97.9386 89.1114C103.148 86.1508 103.797 85.8359 104.416 85.9698ZM124.423 105.505C125.292 105.582 126.553 106.405 127.008 107.194C127.2 107.526 127.731 108.945 128.188 110.347C128.828 112.314 129.332 113.379 130.388 115.007C132.125 117.683 132.894 118.389 134.925 119.163C137.047 119.971 139.329 119.922 141.744 119.016C143.828 118.235 147.233 116.386 147.06 116.131C146.999 116.04 146.135 116.026 145.14 116.099C143.061 116.253 140.571 116.085 139.159 115.696C136.332 114.918 134.42 112.261 133.349 107.625C133.012 106.165 132.7 104.558 132.657 104.055C132.614 103.552 132.51 103.022 132.427 102.877C132.293 102.647 132.126 100.951 132.201 100.587C132.216 100.513 132.419 100.48 132.652 100.514C133.4 100.625 136.546 99.8546 138.388 99.1089C139.669 98.5908 140.953 97.8304 142.923 96.4235C147.193 93.3738 152.196 90.5634 153.949 90.2307C157.519 89.5532 158.513 91.1753 160.525 100.965C160.694 101.79 161.103 103.68 161.433 105.165C162.105 108.189 161.996 109.451 160.921 111.098C160.22 112.171 160.032 112.296 153.439 116.057C145.947 120.332 137.837 124.604 134.296 126.141C129.043 128.422 124.512 127.574 121.35 123.718C119.192 121.086 117.876 116.659 118.389 113.757C118.576 112.701 120.738 109.146 122.179 107.526C122.585 107.07 123.044 106.447 123.198 106.143C123.551 105.449 123.585 105.431 124.423 105.505Z" fill="#383635"/>
</svg>
