<svg width="24" height="24" viewBox="0 0 24 24" fill="none" xmlns="http://www.w3.org/2000/svg">
<path d="M7.60433 19.9999C15.5292 19.9999 19.863 13.8448 19.863 8.5075C19.863 8.33268 19.8592 8.15859 19.8508 7.98546C20.692 7.41527 21.4231 6.70373 22 5.89383C21.228 6.21564 20.3971 6.432 19.5258 6.52988C20.4152 6.02963 21.0982 5.23863 21.4203 4.29569C20.5879 4.75837 19.6659 5.09452 18.6845 5.27608C17.8983 4.49097 16.7788 4 15.5394 4C13.1602 4 11.2306 5.80883 11.2306 8.03856C11.2306 8.35568 11.2685 8.66389 11.3424 8.95958C7.76152 8.79067 4.58611 7.18351 2.46134 4.73947C2.09147 5.33627 1.87803 6.02975 1.87803 6.76971C1.87803 8.17087 2.63869 9.40818 3.79527 10.1318C3.08843 10.1114 2.42448 9.92949 1.844 9.6267C1.84336 9.64367 1.84336 9.66017 1.84336 9.67823C1.84336 11.6344 3.32845 13.2677 5.30014 13.6378C4.93799 13.7301 4.55696 13.7799 4.16398 13.7799C3.88684 13.7799 3.61664 13.7543 3.35414 13.707C3.90264 15.3119 5.49329 16.4797 7.37907 16.5125C5.90438 17.5961 4.04673 18.2415 2.02778 18.2415C1.68052 18.2415 1.33724 18.2228 1 18.1855C2.90684 19.3313 5.17108 20 7.60445 20" fill="#060403"/>
</svg>
