<svg width="18" height="14" viewBox="0 0 18 14" fill="none" xmlns="http://www.w3.org/2000/svg">
<path d="M5.66085 13.9999C12.4536 13.9999 16.1683 8.61417 16.1683 3.94406C16.1683 3.7911 16.165 3.63877 16.1579 3.48728C16.8789 2.98836 17.5055 2.36576 18 1.6571C17.3383 1.93869 16.6261 2.128 15.8792 2.21364C16.6416 1.77593 17.227 1.0838 17.5031 0.258731C16.7896 0.663577 15.9993 0.957703 15.1581 1.11657C14.4842 0.429602 13.5247 0 12.4623 0C10.423 0 8.76911 1.58272 8.76911 3.53374C8.76911 3.81122 8.80159 4.08091 8.86488 4.33964C5.79559 4.19184 3.07381 2.78557 1.25257 0.647037C0.93555 1.16924 0.752601 1.77603 0.752601 2.42349C0.752601 3.64951 1.40459 4.73216 2.39595 5.36529C1.79008 5.34749 1.22098 5.18831 0.72343 4.92336C0.72288 4.93821 0.72288 4.95265 0.72288 4.96845C0.72288 6.68012 1.99582 8.10924 3.68584 8.43308C3.37542 8.51388 3.04882 8.55739 2.71198 8.55739C2.47443 8.55739 2.24283 8.53505 2.01783 8.49365C2.48797 9.89792 3.8514 10.9198 5.46777 10.9484C4.20375 11.8966 2.61148 12.4613 0.880951 12.4613C0.583301 12.4613 0.289064 12.445 0 12.4123C1.63443 13.4149 3.57521 14 5.66096 14" fill="white"/>
</svg>
